<mxfile host="app.diagrams.net" agent="Mozilla/5.0 (Windows NT 10.0; Win64; x64) AppleWebKit/537.36 (KHTML, like Gecko) Chrome/131.0.0.0 Safari/537.36" version="26.0.3">
  <diagram name="Page-1" id="pKHPydyjM7GskHzPsCkR">
    <mxGraphModel dx="212" dy="553" grid="1" gridSize="10" guides="1" tooltips="1" connect="1" arrows="1" fold="1" page="1" pageScale="1" pageWidth="850" pageHeight="1100" math="0" shadow="0">
      <root>
        <mxCell id="0" />
        <mxCell id="1" parent="0" />
        <mxCell id="WcTLmxIVMHlKwNo3_fOQ-221" value="&lt;font face=&quot;Comic Sans MS&quot; style=&quot;font-weight: normal;&quot;&gt;Ejercicio 2&lt;/font&gt;&lt;div&gt;&lt;span style=&quot;font-weight: normal;&quot;&gt;&lt;br&gt;&lt;font face=&quot;Comic Sans MS&quot;&gt; Banda (codigoB, nombreBanda, genero_musical, año_creacion)&lt;br&gt;&lt;/font&gt;&lt;font face=&quot;Comic Sans MS&quot;&gt; Integrante (DNI, nombre, apellido, dirección, email, fecha_nacimiento, codigoB(fk))&lt;br&gt; Escenario (nroEscenario, nombre_escenario, ubicación, cubierto, m2, descripción)&lt;br&gt; Recital (fecha, hora, nroEscenario(fk), codigoB(fk) )&lt;/font&gt;&lt;/span&gt;&lt;/div&gt;" style="text;whiteSpace=wrap;html=1;fontStyle=1;fillColor=#f5f5f5;strokeColor=#666666;fontColor=#333333;align=left;" vertex="1" parent="1">
          <mxGeometry x="920" y="40" width="1200" height="120" as="geometry" />
        </mxCell>
        <mxCell id="WcTLmxIVMHlKwNo3_fOQ-222" value="&lt;b&gt;&amp;nbsp;1. Listar datos personales de integrantes con apellido ‘Garcia’ o fecha de nacimiento anterior a 2005, que toquen en bandas de rock and roll.&lt;/b&gt;" style="text;whiteSpace=wrap;html=1;fillColor=#f5f5f5;fontColor=#333333;strokeColor=#666666;" vertex="1" parent="1">
          <mxGeometry x="920" y="200" width="1200" height="40" as="geometry" />
        </mxCell>
        <mxCell id="WcTLmxIVMHlKwNo3_fOQ-223" value="&lt;b&gt;&amp;nbsp;2. Listar nombre de escenario, ubicación y descripción de escenarios que no tuvieron recitales durante 2019.&lt;/b&gt;" style="text;whiteSpace=wrap;html=1;fillColor=#f5f5f5;fontColor=#333333;strokeColor=#666666;" vertex="1" parent="1">
          <mxGeometry x="920" y="360" width="1200" height="40" as="geometry" />
        </mxCell>
        <mxCell id="WcTLmxIVMHlKwNo3_fOQ-224" value="&lt;div&gt;&lt;font style=&quot;background-color: initial; font-size: 18px;&quot;&gt;integrante_rock&amp;nbsp;&lt;/font&gt;&lt;font style=&quot;background-color: initial; font-size: 20px;&quot;&gt;&amp;lt;&lt;font style=&quot;font-size: 16px;&quot;&gt;==&amp;nbsp;&lt;/font&gt;&lt;/font&gt;&lt;span style=&quot;background-color: initial; font-size: 24px;&quot;&gt;σ&amp;nbsp;&lt;/span&gt;&lt;span style=&quot;background-color: initial;&quot;&gt;genero_musical&amp;nbsp;&amp;nbsp;= &quot;rock and roll&quot;&amp;nbsp;&lt;/span&gt;&lt;font style=&quot;background-color: initial; font-size: 18px;&quot;&gt;( Integrante |x| Banda&amp;nbsp;&lt;/font&gt;&lt;span style=&quot;background-color: initial; font-size: 18px;&quot;&gt;)&lt;/span&gt;&lt;/div&gt;&lt;div&gt;&lt;font style=&quot;background-color: initial; font-size: 24px;&quot;&gt;π&lt;/font&gt;&lt;font style=&quot;background-color: initial; font-size: 18px;&quot;&gt;&amp;nbsp;&lt;/font&gt;&lt;span style=&quot;background-color: initial;&quot;&gt;nombre, apellido, direccion, email, fecha_nacimiento&amp;nbsp;&lt;/span&gt;&lt;font style=&quot;background-color: initial; font-size: 18px;&quot;&gt;(&lt;/font&gt;&lt;font style=&quot;background-color: initial; font-size: 24px;&quot;&gt;σ&lt;/font&gt;&lt;font style=&quot;background-color: initial; font-size: 18px;&quot;&gt;&amp;nbsp;&lt;/font&gt;&lt;span style=&quot;background-color: initial;&quot;&gt;(nombre &amp;gt; “garcia”) or (fecha_nacimiento &amp;lt; 2005)&amp;nbsp;&lt;/span&gt;&lt;span style=&quot;background-color: initial; font-size: 18px;&quot;&gt;(&amp;nbsp;&lt;/span&gt;&lt;span style=&quot;background-color: initial; font-size: 18px;&quot;&gt;integrante_rock&amp;nbsp;&lt;/span&gt;&lt;span style=&quot;background-color: initial; font-size: 18px;&quot;&gt;)&lt;/span&gt;&lt;span style=&quot;background-color: initial; font-size: 18px;&quot;&gt;)&lt;/span&gt;&lt;/div&gt;&lt;div&gt;&lt;div&gt;&lt;br&gt;&lt;/div&gt;&lt;/div&gt;" style="text;whiteSpace=wrap;html=1;verticalAlign=middle;fontFamily=Comic Sans MS;" vertex="1" parent="1">
          <mxGeometry x="920" y="240" width="1200" height="80" as="geometry" />
        </mxCell>
        <mxCell id="WcTLmxIVMHlKwNo3_fOQ-225" value="&lt;span style=&quot;forced-color-adjust: none; color: rgb(0, 0, 0); font-size: 12px; font-style: normal; font-variant-ligatures: normal; font-variant-caps: normal; font-weight: 400; letter-spacing: normal; orphans: 2; text-align: left; text-indent: 0px; text-transform: none; widows: 2; word-spacing: 0px; -webkit-text-stroke-width: 0px; white-space: normal; text-decoration-thickness: initial; text-decoration-style: initial; text-decoration-color: initial; background-color: rgb(251, 251, 251); float: none; display: inline !important;&quot;&gt;&lt;font style=&quot;forced-color-adjust: none; font-size: 24px;&quot;&gt;&lt;font style=&quot;font-size: 18px; background-color: initial;&quot;&gt;escenario_2019&amp;nbsp;&lt;/font&gt;&lt;font style=&quot;background-color: initial; font-size: 20px;&quot;&gt;&amp;lt;&lt;font style=&quot;font-size: 16px;&quot;&gt;==&amp;nbsp;&lt;/font&gt;&lt;/font&gt;π&lt;/font&gt;&lt;font style=&quot;forced-color-adjust: none; font-size: 18px;&quot;&gt;&amp;nbsp;&lt;/font&gt;&lt;/span&gt;&lt;span style=&quot;forced-color-adjust: none; color: rgb(0, 0, 0); font-style: normal; font-variant-ligatures: normal; font-variant-caps: normal; font-weight: 400; letter-spacing: normal; orphans: 2; text-align: left; text-indent: 0px; text-transform: none; widows: 2; word-spacing: 0px; -webkit-text-stroke-width: 0px; white-space: normal; text-decoration-thickness: initial; text-decoration-style: initial; text-decoration-color: initial; background-color: rgb(251, 251, 251); float: none; display: inline !important;&quot;&gt;&lt;font style=&quot;font-size: 12px; forced-color-adjust: none;&quot;&gt;nroEscenario , nombre_escenario, ubicacion, cubierto, m2, descripcion&amp;nbsp;&amp;nbsp;&lt;/font&gt;&lt;font style=&quot;font-size: 18px; forced-color-adjust: none;&quot;&gt;(&lt;/font&gt;&lt;font style=&quot;font-size: 24px; forced-color-adjust: none;&quot;&gt;&lt;span style=&quot;&quot;&gt;σ&lt;/span&gt;&lt;span style=&quot;&quot;&gt;&amp;nbsp;&lt;/span&gt;&lt;/font&gt;&lt;font style=&quot;font-size: 18px; forced-color-adjust: none;&quot;&gt;&lt;span style=&quot;font-size: 12px;&quot;&gt;(fecha &amp;gt;= &quot;01/01/2019&quot;) and (&lt;/span&gt;&lt;span style=&quot;font-size: 12px;&quot;&gt;fecha &amp;lt;= &quot;31/12/2019&quot;)&lt;/span&gt;&lt;span style=&quot;font-size: 12px;&quot;&gt;&amp;nbsp;&lt;/span&gt;&amp;nbsp;&lt;/font&gt;&lt;font style=&quot;forced-color-adjust: none;&quot;&gt;&lt;font style=&quot;forced-color-adjust: none;&quot;&gt;&lt;font style=&quot;font-size: 18px; forced-color-adjust: none;&quot;&gt;(&amp;nbsp;&lt;/font&gt;&lt;font style=&quot;forced-color-adjust: none;&quot;&gt;&lt;span style=&quot;font-size: 18px;&quot;&gt;Escenario |x|&lt;/span&gt;&amp;nbsp;&lt;span style=&quot;font-size: 18px;&quot;&gt;Recital&amp;nbsp;&lt;/span&gt;&lt;/font&gt;&lt;font style=&quot;font-size: 18px; forced-color-adjust: none;&quot;&gt;))&lt;/font&gt;&lt;/font&gt;&lt;/font&gt;&lt;/span&gt;&lt;div&gt;&lt;font style=&quot;font-size: 24px;&quot;&gt;π&lt;/font&gt;&lt;font style=&quot;font-size: 18px;&quot;&gt;&amp;nbsp;&lt;/font&gt;&lt;font&gt;nombre_escenario, ubicacion, descripcion&amp;nbsp;&amp;nbsp;&lt;/font&gt;&lt;font&gt;&lt;font style=&quot;font-size: 18px;&quot;&gt;(&amp;nbsp;&lt;/font&gt;&lt;/font&gt;&lt;font style=&quot;background-color: initial;&quot;&gt;&lt;font style=&quot;font-size: 18px;&quot;&gt;Escenario&amp;nbsp;&lt;/font&gt;&lt;/font&gt;&lt;span style=&quot;background-color: initial;&quot;&gt;&lt;font style=&quot;font-size: 21px;&quot;&gt;-&lt;/font&gt;&lt;/span&gt;&lt;font style=&quot;background-color: initial;&quot;&gt;&lt;font style=&quot;font-size: 18px;&quot;&gt;&amp;nbsp;&lt;/font&gt;&lt;/font&gt;&lt;font style=&quot;background-color: initial;&quot;&gt;&lt;font style=&quot;font-size: 18px;&quot;&gt;escenario_2019 )&lt;/font&gt;&lt;/font&gt;&lt;/div&gt;" style="text;whiteSpace=wrap;html=1;verticalAlign=middle;fontFamily=Comic Sans MS;" vertex="1" parent="1">
          <mxGeometry x="920" y="400" width="1200" height="80" as="geometry" />
        </mxCell>
        <mxCell id="WcTLmxIVMHlKwNo3_fOQ-226" value="&lt;b&gt;&amp;nbsp;3. Listar nombre de escenario, ubicación y descripción de escenarios que tuvieron recitales con género musical rock and roll o tuvieron recitales durante 2020.&lt;/b&gt;" style="text;whiteSpace=wrap;html=1;fillColor=#f5f5f5;fontColor=#333333;strokeColor=#666666;" vertex="1" parent="1">
          <mxGeometry x="920" y="520" width="1200" height="40" as="geometry" />
        </mxCell>
        <mxCell id="WcTLmxIVMHlKwNo3_fOQ-227" value="&lt;br&gt;&lt;span style=&quot;forced-color-adjust: none; color: rgb(0, 0, 0); font-size: 12px; font-style: normal; font-variant-ligatures: normal; font-variant-caps: normal; font-weight: 400; letter-spacing: normal; orphans: 2; text-align: left; text-indent: 0px; text-transform: none; widows: 2; word-spacing: 0px; -webkit-text-stroke-width: 0px; white-space: normal; text-decoration-thickness: initial; text-decoration-style: initial; text-decoration-color: initial; background-color: rgb(251, 251, 251); float: none; display: inline !important;&quot;&gt;&lt;font style=&quot;forced-color-adjust: none; font-size: 24px;&quot;&gt;&lt;font style=&quot;font-size: 18px; background-color: initial;&quot;&gt;&lt;div style=&quot;font-size: 12px;&quot;&gt;&lt;font style=&quot;font-size: 24px;&quot;&gt;&lt;font style=&quot;font-size: 18px; background-color: initial;&quot;&gt;escenario_rock&amp;nbsp;&lt;/font&gt;&lt;font style=&quot;background-color: initial; font-size: 20px;&quot;&gt;&amp;lt;&lt;font style=&quot;font-size: 16px;&quot;&gt;==&amp;nbsp;&lt;/font&gt;&lt;/font&gt;π&lt;/font&gt;&lt;font style=&quot;font-size: 18px;&quot;&gt;&amp;nbsp;&lt;/font&gt;nombre_escenario, ubicacion, descripcion&amp;nbsp;&amp;nbsp;&lt;font style=&quot;font-size: 18px;&quot;&gt;(&lt;/font&gt;&lt;font style=&quot;font-size: 24px;&quot;&gt;σ&amp;nbsp;&lt;/font&gt;&lt;span style=&quot;background-color: initial;&quot;&gt;genero_musical&amp;nbsp;&amp;nbsp;= &quot;rock and roll&quot;&lt;/span&gt;&lt;font style=&quot;font-size: 18px;&quot;&gt;&lt;span style=&quot;font-size: 12px;&quot;&gt;&amp;nbsp;&lt;/span&gt;&amp;nbsp;&lt;/font&gt;&lt;font style=&quot;font-size: 18px;&quot;&gt;(&amp;nbsp;&lt;/font&gt;&lt;span style=&quot;font-size: 18px;&quot;&gt;Escenario |x|&lt;/span&gt;&amp;nbsp;&lt;span style=&quot;font-size: 18px;&quot;&gt;Recital&amp;nbsp;&lt;/span&gt;&lt;font style=&quot;font-size: 18px;&quot;&gt;|x|&amp;nbsp; Banda&amp;nbsp;&lt;/font&gt;&lt;span style=&quot;font-size: 18px;&quot;&gt;))&lt;/span&gt;&lt;/div&gt;&lt;div style=&quot;font-size: 12px;&quot;&gt;&lt;/div&gt;&lt;/font&gt;&lt;/font&gt;&lt;/span&gt;&lt;div&gt;&lt;span style=&quot;forced-color-adjust: none; color: rgb(0, 0, 0); font-size: 12px; font-style: normal; font-variant-ligatures: normal; font-variant-caps: normal; font-weight: 400; letter-spacing: normal; orphans: 2; text-align: left; text-indent: 0px; text-transform: none; widows: 2; word-spacing: 0px; -webkit-text-stroke-width: 0px; white-space: normal; text-decoration-thickness: initial; text-decoration-style: initial; text-decoration-color: initial; background-color: rgb(251, 251, 251); float: none; display: inline !important;&quot;&gt;&lt;font style=&quot;forced-color-adjust: none; font-size: 24px;&quot;&gt;&lt;font style=&quot;font-size: 18px; background-color: initial;&quot;&gt;&lt;span style=&quot;font-size: 12px;&quot;&gt;&lt;font style=&quot;font-size: 24px;&quot;&gt;&lt;font style=&quot;font-size: 18px; background-color: initial;&quot;&gt;escenario_2020&amp;nbsp;&lt;/font&gt;&lt;font style=&quot;background-color: initial; font-size: 20px;&quot;&gt;&amp;lt;&lt;font style=&quot;font-size: 16px;&quot;&gt;==&amp;nbsp;&lt;/font&gt;&lt;/font&gt;π&lt;/font&gt;&lt;font style=&quot;font-size: 18px;&quot;&gt;&amp;nbsp;&lt;/font&gt;&lt;/span&gt;&lt;span style=&quot;font-size: 12px;&quot;&gt;nombre_escenario, ubicacion, descripcion&lt;/span&gt;&lt;span style=&quot;font-size: 12px;&quot;&gt;&amp;nbsp;&amp;nbsp;&lt;font style=&quot;font-size: 18px;&quot;&gt;(&lt;/font&gt;&lt;font style=&quot;font-size: 24px;&quot;&gt;σ&amp;nbsp;&lt;/font&gt;&lt;font style=&quot;font-size: 18px;&quot;&gt;&lt;span style=&quot;font-size: 12px;&quot;&gt;(fecha &amp;gt;= &quot;01/01/2020&quot;) and (&lt;/span&gt;&lt;span style=&quot;font-size: 12px;&quot;&gt;fecha &amp;lt;= &quot;31/12/2020&quot;)&lt;/span&gt;&lt;span style=&quot;font-size: 12px;&quot;&gt;&amp;nbsp;&lt;/span&gt;&amp;nbsp;&lt;/font&gt;&lt;font style=&quot;font-size: 18px;&quot;&gt;(&amp;nbsp;&lt;/font&gt;&lt;span style=&quot;font-size: 18px;&quot;&gt;Escenario |x|&lt;/span&gt;&amp;nbsp;&lt;span style=&quot;font-size: 18px;&quot;&gt;Recital&amp;nbsp;&lt;/span&gt;&lt;font style=&quot;font-size: 18px;&quot;&gt;))&lt;/font&gt;&lt;/span&gt;&lt;/font&gt;&lt;/font&gt;&lt;/span&gt;&lt;div&gt;&lt;div&gt;&lt;font style=&quot;background-color: initial; font-size: 24px;&quot;&gt;π&lt;/font&gt;&lt;font style=&quot;background-color: initial; font-size: 18px;&quot;&gt;&amp;nbsp;&lt;/font&gt;&lt;font style=&quot;background-color: initial;&quot;&gt;nombre_escenario, ubicacion, descripcion&amp;nbsp;&amp;nbsp;&lt;/font&gt;&lt;font style=&quot;background-color: initial;&quot;&gt;&lt;font style=&quot;font-size: 18px;&quot;&gt;( escenario_rock&amp;nbsp;&lt;/font&gt;&lt;/font&gt;&lt;span style=&quot;font-size: 24px; background-color: initial;&quot;&gt;∪&lt;/span&gt;&lt;font style=&quot;background-color: initial;&quot;&gt;&lt;font style=&quot;font-size: 18px;&quot;&gt;&amp;nbsp;&lt;/font&gt;&lt;/font&gt;&lt;font style=&quot;background-color: initial;&quot;&gt;&lt;font style=&quot;font-size: 18px;&quot;&gt;escenario_2020 )&lt;/font&gt;&lt;/font&gt;&lt;/div&gt;&lt;div&gt;&lt;div&gt;&lt;div&gt;&lt;br&gt;&lt;/div&gt;&lt;/div&gt;&lt;/div&gt;&lt;/div&gt;&lt;/div&gt;" style="text;whiteSpace=wrap;html=1;verticalAlign=middle;fontFamily=Comic Sans MS;" vertex="1" parent="1">
          <mxGeometry x="920" y="560" width="1200" height="120" as="geometry" />
        </mxCell>
        <mxCell id="WcTLmxIVMHlKwNo3_fOQ-228" value="&lt;b&gt;&amp;nbsp;4. Listar nombre, género musical y año de creación de bandas que hayan realizado recitales en escenarios cubiertos durante 2019. // cubierto es true, false según corresponda&lt;/b&gt;" style="text;whiteSpace=wrap;html=1;fillColor=#f5f5f5;fontColor=#333333;strokeColor=#666666;" vertex="1" parent="1">
          <mxGeometry x="920" y="720" width="1200" height="40" as="geometry" />
        </mxCell>
        <mxCell id="WcTLmxIVMHlKwNo3_fOQ-229" value="&lt;b&gt;&amp;nbsp;5. Listar DNI, nombre, apellido, dirección y email de integrantes nacidos entre 2000 y 2005 y que toquen en bandas con género pop que hayan tenido recitales durante 2020.&lt;/b&gt;" style="text;whiteSpace=wrap;html=1;fillColor=#f5f5f5;fontColor=#333333;strokeColor=#666666;" vertex="1" parent="1">
          <mxGeometry x="920" y="840" width="1200" height="40" as="geometry" />
        </mxCell>
        <mxCell id="WcTLmxIVMHlKwNo3_fOQ-230" value="&amp;nbsp;6. Listar DNI, nombre, apellido,email de integrantes que hayan tocado en el escenario con nombre ‘Gustavo Cerati’ y no hayan tocado en el escenario con nombre ‘Carlos Gardel’." style="text;whiteSpace=wrap;html=1;fillColor=#f5f5f5;fontColor=#333333;strokeColor=#666666;fontStyle=1" vertex="1" parent="1">
          <mxGeometry x="920" y="1200" width="1200" height="40" as="geometry" />
        </mxCell>
        <mxCell id="WcTLmxIVMHlKwNo3_fOQ-231" value="&amp;nbsp;7. Modificar el año de creación de la banda de nombre ‘Ratones Paranoicos’ a: 1983." style="text;whiteSpace=wrap;html=1;fillColor=#f5f5f5;fontColor=#333333;strokeColor=#666666;fontStyle=1" vertex="1" parent="1">
          <mxGeometry x="920" y="1380" width="1200" height="40" as="geometry" />
        </mxCell>
        <mxCell id="WcTLmxIVMHlKwNo3_fOQ-232" value="8. Reportar nombre, género musical y año de creación de bandas que hayan realizado recitales durante 2019, y además hayan tocado durante 2020." style="text;whiteSpace=wrap;html=1;fillColor=#f5f5f5;fontColor=#333333;strokeColor=#666666;fontStyle=1" vertex="1" parent="1">
          <mxGeometry x="920" y="1507.5" width="1200" height="40" as="geometry" />
        </mxCell>
        <mxCell id="WcTLmxIVMHlKwNo3_fOQ-233" value=" 9. Listar el cronograma de recitales del día 04/12/2019. Se deberá listar: nombre de la banda que ejecutará el recital, fecha, hora, y el nombre y ubicación del escenario correspondiente." style="text;whiteSpace=wrap;html=1;fillColor=#f5f5f5;fontColor=#333333;strokeColor=#666666;fontStyle=1" vertex="1" parent="1">
          <mxGeometry x="920" y="1690" width="1200" height="40" as="geometry" />
        </mxCell>
        <mxCell id="WcTLmxIVMHlKwNo3_fOQ-234" value="&lt;br&gt;&lt;span style=&quot;forced-color-adjust: none; color: rgb(0, 0, 0); font-size: 12px; font-style: normal; font-variant-ligatures: normal; font-variant-caps: normal; font-weight: 400; letter-spacing: normal; orphans: 2; text-align: left; text-indent: 0px; text-transform: none; widows: 2; word-spacing: 0px; -webkit-text-stroke-width: 0px; white-space: normal; text-decoration-thickness: initial; text-decoration-style: initial; text-decoration-color: initial; background-color: rgb(251, 251, 251); float: none; display: inline !important;&quot;&gt;&lt;font style=&quot;forced-color-adjust: none; font-size: 24px;&quot;&gt;π&lt;/font&gt;&lt;font style=&quot;forced-color-adjust: none; font-size: 18px;&quot;&gt;&amp;nbsp;&lt;/font&gt;&lt;/span&gt;&lt;span style=&quot;forced-color-adjust: none; color: rgb(0, 0, 0); font-style: normal; font-variant-ligatures: normal; font-variant-caps: normal; letter-spacing: normal; orphans: 2; text-align: left; text-indent: 0px; text-transform: none; widows: 2; word-spacing: 0px; -webkit-text-stroke-width: 0px; white-space: normal; text-decoration-thickness: initial; text-decoration-style: initial; text-decoration-color: initial; background-color: rgb(251, 251, 251); float: none; display: inline !important;&quot;&gt;&lt;font style=&quot;font-size: 12px; forced-color-adjust: none;&quot;&gt;&lt;span style=&quot;color: rgb(51, 51, 51);&quot;&gt;nombreBanda, genero_musical, año_creacion&lt;/span&gt;&amp;nbsp;&amp;nbsp;&lt;/font&gt;&lt;font style=&quot;font-weight: 400; font-size: 18px; forced-color-adjust: none;&quot;&gt;(&lt;/font&gt;&lt;font style=&quot;font-weight: 400; font-size: 24px; forced-color-adjust: none;&quot;&gt;&lt;span style=&quot;&quot;&gt;σ &lt;/span&gt;&lt;/font&gt;&lt;font style=&quot;font-weight: 400; font-size: 18px; forced-color-adjust: none;&quot;&gt;&lt;span style=&quot;font-size: 12px;&quot;&gt;(fecha &amp;gt;= &quot;01/01/2019&quot;) and (&lt;/span&gt;&lt;span style=&quot;font-size: 12px;&quot;&gt;fecha &amp;lt;= &quot;31/12/2019&quot;) and (cubierto=true)&lt;/span&gt;&amp;nbsp;&lt;/font&gt;&lt;font style=&quot;font-weight: 400; forced-color-adjust: none;&quot;&gt;&lt;font style=&quot;forced-color-adjust: none;&quot;&gt;&lt;font style=&quot;font-size: 18px; forced-color-adjust: none;&quot;&gt;(&amp;nbsp;&lt;/font&gt;&lt;font style=&quot;forced-color-adjust: none;&quot;&gt;&lt;span style=&quot;font-size: 18px;&quot;&gt;Escenario |x|&lt;/span&gt;&amp;nbsp;&lt;span style=&quot;font-size: 18px;&quot;&gt;Recital&amp;nbsp;&lt;/span&gt;&lt;/font&gt;&lt;font style=&quot;font-size: 18px; forced-color-adjust: none;&quot;&gt;|x| Banda&amp;nbsp;&lt;/font&gt;&lt;font style=&quot;forced-color-adjust: none;&quot;&gt;&lt;span style=&quot;font-size: 18px;&quot;&gt;))&lt;/span&gt;&lt;/font&gt;&lt;/font&gt;&lt;/font&gt;&lt;/span&gt;&lt;div&gt;&lt;div&gt;&lt;div&gt;&lt;br&gt;&lt;/div&gt;&lt;/div&gt;&lt;/div&gt;" style="text;whiteSpace=wrap;html=1;verticalAlign=middle;fontFamily=Comic Sans MS;" vertex="1" parent="1">
          <mxGeometry x="920" y="760" width="1200" height="40" as="geometry" />
        </mxCell>
        <mxCell id="WcTLmxIVMHlKwNo3_fOQ-235" value="&lt;div&gt;&lt;font style=&quot;background-color: initial;&quot;&gt;&lt;font style=&quot;font-size: 20px;&quot;&gt;&lt;span style=&quot;font-size: 18px; background-color: initial;&quot;&gt;integrante_2000_2005&lt;/span&gt;&lt;span style=&quot;font-size: 18px; background-color: initial;&quot;&gt;&amp;nbsp;&lt;/span&gt;&amp;lt;&lt;/font&gt;&lt;font style=&quot;font-size: 16px;&quot;&gt;=&lt;/font&gt;&lt;/font&gt;&lt;span style=&quot;background-color: initial; font-size: 16px;&quot;&gt;=&amp;nbsp;&lt;/span&gt;&lt;font style=&quot;background-color: initial; font-size: 24px;&quot;&gt;σ&amp;nbsp;&lt;/font&gt;&lt;font style=&quot;background-color: initial; font-size: 18px;&quot;&gt;&lt;span style=&quot;font-size: 12px;&quot;&gt;(fecha_nacimiento &amp;gt;= &quot;01/01/2000&quot;) and (&lt;/span&gt;&lt;span style=&quot;font-size: 12px;&quot;&gt;fecha_nacimiento&amp;nbsp;&lt;/span&gt;&lt;span style=&quot;font-size: 12px;&quot;&gt;&amp;lt;= &quot;31/12/2005&quot;)&amp;nbsp;&lt;/span&gt;&lt;/font&gt;&lt;font style=&quot;background-color: initial; font-size: 18px;&quot;&gt;(&amp;nbsp;&lt;/font&gt;&lt;font style=&quot;background-color: initial; font-size: 18px;&quot;&gt;Integrante&amp;nbsp;&lt;/font&gt;&lt;span style=&quot;background-color: initial; font-size: 18px;&quot;&gt;))&lt;/span&gt;&lt;/div&gt;&lt;div&gt;&lt;font&gt;&lt;span style=&quot;font-size: 18px;&quot;&gt;banda_pop&amp;nbsp;&lt;/span&gt;&lt;font style=&quot;background-color: initial;&quot;&gt;&lt;font style=&quot;font-size: 20px;&quot;&gt;&amp;lt;&lt;/font&gt;&lt;font style=&quot;font-size: 16px;&quot;&gt;=&lt;/font&gt;&lt;/font&gt;&lt;span style=&quot;background-color: initial; font-size: 16px;&quot;&gt;=&amp;nbsp;&lt;/span&gt;&lt;font style=&quot;background-color: initial; font-size: 24px;&quot;&gt;σ&amp;nbsp;&lt;/font&gt;&lt;font style=&quot;background-color: initial; font-size: 18px;&quot;&gt;&lt;span style=&quot;font-size: 12px;&quot;&gt;(genero_musical = &quot;pop&quot;) &lt;/span&gt;&lt;/font&gt;&lt;font style=&quot;background-color: initial; font-size: 18px;&quot;&gt;( Banda&amp;nbsp;&lt;/font&gt;&lt;span style=&quot;background-color: initial; font-size: 18px;&quot;&gt;))&lt;/span&gt;&lt;/font&gt;&lt;/div&gt;&lt;div&gt;&lt;font&gt;&lt;font style=&quot;background-color: initial;&quot;&gt;&lt;font style=&quot;font-size: 18px;&quot;&gt;recital_2020&amp;nbsp;&lt;/font&gt;&lt;font style=&quot;font-size: 20px;&quot;&gt;&amp;lt;&lt;/font&gt;&lt;font style=&quot;font-size: 16px;&quot;&gt;=&lt;/font&gt;&lt;/font&gt;&lt;span style=&quot;background-color: initial; font-size: 16px;&quot;&gt;=&amp;nbsp;&lt;/span&gt;&lt;font style=&quot;background-color: initial; font-size: 24px;&quot;&gt;σ&amp;nbsp;&lt;/font&gt;&lt;font style=&quot;background-color: initial; font-size: 18px;&quot;&gt;&lt;span style=&quot;font-size: 12px;&quot;&gt;(fecha &amp;gt;= &quot;01/01/2020&quot;) and (&lt;/span&gt;&lt;span style=&quot;font-size: 12px;&quot;&gt;fecha &amp;lt;= &quot;31/12/2020&quot;)&amp;nbsp;&lt;/span&gt;&lt;/font&gt;&lt;font style=&quot;background-color: initial; font-size: 18px;&quot;&gt;(&amp;nbsp;&lt;/font&gt;&lt;font style=&quot;background-color: initial; font-size: 18px;&quot;&gt;Recital&amp;nbsp;&lt;/font&gt;&lt;span style=&quot;background-color: initial; font-size: 18px;&quot;&gt;))&lt;/span&gt;&lt;span style=&quot;background-color: initial; font-size: 18px;&quot;&gt;&lt;/span&gt;&lt;/font&gt;&lt;/div&gt;&lt;font&gt;&lt;span style=&quot;forced-color-adjust: none; color: rgb(0, 0, 0); font-size: 12px; font-style: normal; font-variant-ligatures: normal; font-variant-caps: normal; font-weight: 400; letter-spacing: normal; orphans: 2; text-align: left; text-indent: 0px; text-transform: none; widows: 2; word-spacing: 0px; -webkit-text-stroke-width: 0px; white-space: normal; text-decoration-thickness: initial; text-decoration-style: initial; text-decoration-color: initial; background-color: rgb(251, 251, 251); float: none; display: inline !important;&quot;&gt;&lt;font style=&quot;forced-color-adjust: none; font-size: 24px;&quot;&gt;π&lt;/font&gt;&lt;font style=&quot;forced-color-adjust: none; font-size: 18px;&quot;&gt;&amp;nbsp;&lt;/font&gt;&lt;/span&gt;&lt;span style=&quot;forced-color-adjust: none; color: rgb(0, 0, 0); font-style: normal; font-variant-ligatures: normal; font-variant-caps: normal; letter-spacing: normal; orphans: 2; text-align: left; text-indent: 0px; text-transform: none; widows: 2; word-spacing: 0px; -webkit-text-stroke-width: 0px; white-space: normal; text-decoration-thickness: initial; text-decoration-style: initial; text-decoration-color: initial; background-color: rgb(251, 251, 251); float: none; display: inline !important;&quot;&gt;&lt;font style=&quot;font-size: 12px; forced-color-adjust: none;&quot;&gt;&lt;span style=&quot;color: rgb(51, 51, 51);&quot;&gt;DNI, nombre, apellido, dirección, email&lt;/span&gt;&amp;nbsp;&amp;nbsp;&lt;/font&gt;&lt;font style=&quot;font-weight: 400; forced-color-adjust: none;&quot;&gt;&lt;font style=&quot;forced-color-adjust: none;&quot;&gt;&lt;font style=&quot;font-size: 18px; forced-color-adjust: none;&quot;&gt;(&amp;nbsp;&lt;/font&gt;&lt;font style=&quot;font-size: 18px; forced-color-adjust: none;&quot;&gt;integrante_2000_2005 |x| banda_pop |x|&amp;nbsp;&lt;/font&gt;&lt;font style=&quot;forced-color-adjust: none;&quot;&gt;&lt;span style=&quot;font-size: 18px;&quot;&gt;recital_2020&amp;nbsp;&lt;/span&gt;&lt;span style=&quot;font-size: 18px;&quot;&gt;)&lt;/span&gt;&lt;/font&gt;&lt;/font&gt;&lt;/font&gt;&lt;/span&gt;&lt;/font&gt;&lt;div&gt;&lt;font&gt;&lt;span style=&quot;forced-color-adjust: none; color: rgb(0, 0, 0); font-style: normal; font-variant-ligatures: normal; font-variant-caps: normal; letter-spacing: normal; orphans: 2; text-align: left; text-indent: 0px; text-transform: none; widows: 2; word-spacing: 0px; -webkit-text-stroke-width: 0px; white-space: normal; text-decoration-thickness: initial; text-decoration-style: initial; text-decoration-color: initial; background-color: rgb(251, 251, 251); float: none; display: inline !important;&quot;&gt;&lt;font style=&quot;font-weight: 400; forced-color-adjust: none;&quot;&gt;&lt;font style=&quot;forced-color-adjust: none;&quot;&gt;&lt;font style=&quot;forced-color-adjust: none;&quot;&gt;&lt;span style=&quot;font-size: 18px;&quot;&gt;&lt;br&gt;&lt;/span&gt;&lt;/font&gt;&lt;/font&gt;&lt;/font&gt;&lt;/span&gt;&lt;/font&gt;&lt;/div&gt;&lt;div&gt;&lt;font&gt;&lt;span style=&quot;forced-color-adjust: none; color: rgb(0, 0, 0); font-style: normal; font-variant-ligatures: normal; font-variant-caps: normal; letter-spacing: normal; orphans: 2; text-align: left; text-indent: 0px; text-transform: none; widows: 2; word-spacing: 0px; -webkit-text-stroke-width: 0px; white-space: normal; text-decoration-thickness: initial; text-decoration-style: initial; text-decoration-color: initial; background-color: rgb(251, 251, 251); float: none; display: inline !important;&quot;&gt;&lt;font style=&quot;forced-color-adjust: none;&quot;&gt;&lt;font style=&quot;forced-color-adjust: none;&quot;&gt;&lt;font style=&quot;forced-color-adjust: none;&quot;&gt;&lt;div style=&quot;font-weight: 400;&quot;&gt;&lt;font style=&quot;background-color: initial;&quot;&gt;&lt;font style=&quot;font-size: 20px;&quot;&gt;&lt;span style=&quot;font-size: 18px; background-color: initial;&quot;&gt;integrante_2000_2005&lt;/span&gt;&lt;span style=&quot;font-size: 18px; background-color: initial;&quot;&gt;&amp;nbsp;&lt;/span&gt;&amp;lt;&lt;/font&gt;&lt;font style=&quot;font-size: 16px;&quot;&gt;=&lt;/font&gt;&lt;/font&gt;&lt;span style=&quot;background-color: initial; font-size: 16px;&quot;&gt;=&amp;nbsp;&lt;/span&gt;&lt;font style=&quot;background-color: initial; font-size: 24px;&quot;&gt;σ&amp;nbsp;&lt;/font&gt;&lt;font style=&quot;background-color: initial; font-size: 18px;&quot;&gt;&lt;span style=&quot;font-size: 12px;&quot;&gt;(fecha_nacimiento &amp;gt;= &quot;01/01/2000&quot;) and (&lt;/span&gt;&lt;span style=&quot;font-size: 12px;&quot;&gt;fecha_nacimiento&amp;nbsp;&lt;/span&gt;&lt;span style=&quot;font-size: 12px;&quot;&gt;&amp;lt;= &quot;31/12/2005&quot;)&amp;nbsp;&lt;/span&gt;&lt;/font&gt;&lt;font style=&quot;background-color: initial; font-size: 18px;&quot;&gt;(&amp;nbsp;&lt;/font&gt;&lt;font style=&quot;background-color: initial; font-size: 18px;&quot;&gt;Integrante&amp;nbsp;&lt;/font&gt;&lt;span style=&quot;background-color: initial; font-size: 18px;&quot;&gt;))&lt;/span&gt;&lt;/div&gt;&lt;div style=&quot;font-weight: 400;&quot;&gt;&lt;span style=&quot;font-size: 18px;&quot;&gt;codigo_banda_pop&amp;nbsp;&lt;/span&gt;&lt;font style=&quot;background-color: initial;&quot;&gt;&lt;font style=&quot;font-size: 20px;&quot;&gt;&amp;lt;&lt;/font&gt;&lt;font style=&quot;font-size: 16px;&quot;&gt;=&lt;/font&gt;&lt;/font&gt;&lt;span style=&quot;background-color: initial; font-size: 16px;&quot;&gt;=&amp;nbsp;&lt;/span&gt;&lt;span style=&quot;background-color: initial; font-size: 24px;&quot;&gt;π&amp;nbsp;&lt;/span&gt;&lt;span style=&quot;background-color: initial; color: rgb(51, 51, 51);&quot;&gt;codigoB&amp;nbsp;&lt;/span&gt;&lt;font style=&quot;background-color: initial; font-size: 18px;&quot;&gt;(&lt;/font&gt;&lt;font style=&quot;background-color: initial; font-size: 24px;&quot;&gt;σ&amp;nbsp;&lt;/font&gt;&lt;font style=&quot;background-color: initial; font-size: 18px;&quot;&gt;&lt;span style=&quot;font-size: 12px;&quot;&gt;(genero_musical = &quot;pop&quot;)&amp;nbsp;&lt;/span&gt;&lt;/font&gt;&lt;font style=&quot;background-color: initial; font-size: 18px;&quot;&gt;( Banda&amp;nbsp;&lt;/font&gt;&lt;span style=&quot;background-color: initial; font-size: 18px;&quot;&gt;))&lt;/span&gt;&lt;/div&gt;&lt;div style=&quot;font-weight: 400;&quot;&gt;&lt;font style=&quot;background-color: initial;&quot;&gt;&lt;font style=&quot;font-size: 18px;&quot;&gt;codigo_recital_2020&amp;nbsp;&lt;/font&gt;&lt;font style=&quot;font-size: 20px;&quot;&gt;&amp;lt;&lt;/font&gt;&lt;font style=&quot;font-size: 16px;&quot;&gt;=&lt;/font&gt;&lt;/font&gt;&lt;span style=&quot;background-color: initial; font-size: 16px;&quot;&gt;=&amp;nbsp;&lt;/span&gt;&lt;span style=&quot;background-color: initial; font-size: 24px;&quot;&gt;π&amp;nbsp;&lt;/span&gt;&lt;span style=&quot;color: rgb(51, 51, 51);&quot;&gt;codigoB&lt;/span&gt;&lt;span style=&quot;background-color: initial; color: rgb(51, 51, 51);&quot;&gt;&amp;nbsp;&lt;/span&gt;&lt;font style=&quot;background-color: initial; font-size: 18px;&quot;&gt;(&lt;/font&gt;&lt;font style=&quot;background-color: initial; font-size: 24px;&quot;&gt;σ&amp;nbsp;&lt;/font&gt;&lt;font style=&quot;background-color: initial; font-size: 18px;&quot;&gt;&lt;span style=&quot;font-size: 12px;&quot;&gt;(fecha &amp;gt;= &quot;01/01/2020&quot;) and (&lt;/span&gt;&lt;span style=&quot;font-size: 12px;&quot;&gt;fecha &amp;lt;= &quot;31/12/2020&quot;)&amp;nbsp;&lt;/span&gt;&lt;/font&gt;&lt;font style=&quot;background-color: initial; font-size: 18px;&quot;&gt;(&amp;nbsp;&lt;/font&gt;&lt;font style=&quot;background-color: initial; font-size: 18px;&quot;&gt;Recital&amp;nbsp;&lt;/font&gt;&lt;span style=&quot;background-color: initial; font-size: 18px;&quot;&gt;))&lt;/span&gt;&lt;span style=&quot;background-color: initial; font-size: 18px;&quot;&gt;&lt;/span&gt;&lt;/div&gt;&lt;font style=&quot;font-weight: 400; font-size: 24px;&quot;&gt;π&lt;/font&gt;&lt;font style=&quot;font-weight: 400; font-size: 18px;&quot;&gt;&amp;nbsp;&lt;/font&gt;&lt;span style=&quot;font-weight: 400; color: rgb(51, 51, 51);&quot;&gt;DNI, nombre, apellido, dirección, email&lt;/span&gt;&amp;nbsp;&amp;nbsp;&lt;font style=&quot;font-weight: 400; font-size: 18px;&quot;&gt;(&amp;nbsp;&lt;/font&gt;&lt;font style=&quot;&quot;&gt;&lt;span style=&quot;font-size: 18px;&quot;&gt;integrante_2000_2005 &lt;/span&gt;&lt;b style=&quot;&quot;&gt;&lt;font face=&quot;Comic Sans MS&quot; style=&quot;font-size: 24px;&quot;&gt;∩&lt;/font&gt;&lt;/b&gt;&lt;span style=&quot;font-size: 18px;&quot;&gt; codigo_banda_pop&amp;nbsp;&lt;/span&gt;&lt;b&gt;&lt;font style=&quot;font-size: 24px;&quot; face=&quot;Comic Sans MS&quot;&gt;∩&lt;/font&gt;&lt;/b&gt;&lt;span style=&quot;font-size: 18px;&quot;&gt;&amp;nbsp;&lt;/span&gt;&lt;/font&gt;&lt;span style=&quot;font-weight: 400; font-size: 18px;&quot;&gt;codigo_recital_2020&amp;nbsp;&lt;/span&gt;&lt;span style=&quot;font-weight: 400; font-size: 18px;&quot;&gt;)&lt;/span&gt;&lt;span style=&quot;font-size: 18px;&quot;&gt;&lt;/span&gt;&lt;/font&gt;&lt;/font&gt;&lt;/font&gt;&lt;/span&gt;&lt;/font&gt;&lt;/div&gt;" style="text;whiteSpace=wrap;html=1;verticalAlign=middle;fontFamily=Comic Sans MS;" vertex="1" parent="1">
          <mxGeometry x="920" y="881" width="1200" height="279" as="geometry" />
        </mxCell>
        <mxCell id="WcTLmxIVMHlKwNo3_fOQ-236" value="&lt;br&gt;&lt;span style=&quot;font-family: &amp;quot;Comic Sans MS&amp;quot;; forced-color-adjust: none; color: rgb(0, 0, 0); font-size: 12px; font-style: normal; font-variant-ligatures: normal; font-variant-caps: normal; font-weight: 400; letter-spacing: normal; orphans: 2; text-align: left; text-indent: 0px; text-transform: none; widows: 2; word-spacing: 0px; -webkit-text-stroke-width: 0px; white-space: normal; text-decoration-thickness: initial; text-decoration-style: initial; text-decoration-color: initial; background-color: rgb(251, 251, 251); float: none; display: inline !important;&quot;&gt;&lt;font style=&quot;forced-color-adjust: none; font-size: 24px;&quot;&gt;&lt;font style=&quot;font-size: 12px; background-color: initial;&quot;&gt;&lt;font style=&quot;font-size: 18px;&quot;&gt;integrante_cerati&amp;nbsp;&lt;/font&gt;&lt;font style=&quot;font-size: 20px;&quot;&gt;&amp;lt;&lt;/font&gt;&lt;font style=&quot;font-size: 16px;&quot;&gt;=&lt;/font&gt;&lt;/font&gt;&lt;span style=&quot;font-size: 16px;&quot;&gt;=&amp;nbsp;&lt;/span&gt;π&lt;/font&gt;&lt;font style=&quot;forced-color-adjust: none; font-size: 18px;&quot;&gt;&amp;nbsp;&lt;/font&gt;&lt;/span&gt;&lt;span style=&quot;forced-color-adjust: none; color: rgb(0, 0, 0); font-style: normal; font-variant-ligatures: normal; font-variant-caps: normal; letter-spacing: normal; orphans: 2; text-align: left; text-indent: 0px; text-transform: none; widows: 2; word-spacing: 0px; -webkit-text-stroke-width: 0px; white-space: normal; text-decoration-thickness: initial; text-decoration-style: initial; text-decoration-color: initial; background-color: rgb(251, 251, 251); float: none; display: inline !important;&quot;&gt;&lt;font style=&quot;font-size: 12px; forced-color-adjust: none;&quot;&gt;&lt;span style=&quot;color: rgb(51, 51, 51);&quot;&gt;DNI, &lt;font face=&quot;Comic Sans MS&quot;&gt;nombre&lt;/font&gt;, apellido, dirección, email&lt;/span&gt;&amp;nbsp;&amp;nbsp;&lt;/font&gt;&lt;font style=&quot;font-family: &amp;quot;Comic Sans MS&amp;quot;; font-weight: 400; font-size: 18px; forced-color-adjust: none;&quot;&gt;(&lt;/font&gt;&lt;font style=&quot;font-family: &amp;quot;Comic Sans MS&amp;quot;; font-weight: 400; forced-color-adjust: none;&quot;&gt;&lt;span style=&quot;font-size: 24px;&quot;&gt;σ &lt;/span&gt;nombre_escenario = &quot;Gustavo Cerati&quot;&amp;nbsp;&lt;/font&gt;&lt;font style=&quot;font-family: &amp;quot;Comic Sans MS&amp;quot;; font-weight: 400; forced-color-adjust: none;&quot;&gt;&lt;font style=&quot;forced-color-adjust: none;&quot;&gt;&lt;font style=&quot;font-size: 18px; forced-color-adjust: none;&quot;&gt;( Integrante |x|&amp;nbsp;&lt;/font&gt;&lt;font style=&quot;font-size: 18px; forced-color-adjust: none;&quot;&gt;Banda&lt;font style=&quot;font-size: 12px;&quot;&gt;&lt;span style=&quot;font-size: 18px;&quot;&gt;&amp;nbsp;&lt;/span&gt;&lt;/font&gt;|x| Recital |x| Escenario&amp;nbsp;&lt;/font&gt;&lt;font style=&quot;forced-color-adjust: none;&quot;&gt;&lt;span style=&quot;font-size: 18px;&quot;&gt;))&lt;/span&gt;&lt;/font&gt;&lt;/font&gt;&lt;/font&gt;&lt;/span&gt;&lt;div&gt;&lt;font style=&quot;font-size: 24px;&quot;&gt;&lt;font style=&quot;font-size: 12px; background-color: initial;&quot;&gt;&lt;font style=&quot;font-size: 18px;&quot;&gt;integrante_gardel&amp;nbsp;&lt;/font&gt;&lt;font style=&quot;font-size: 20px;&quot;&gt;&amp;lt;&lt;/font&gt;&lt;font style=&quot;font-size: 16px;&quot;&gt;=&lt;/font&gt;&lt;/font&gt;&lt;span style=&quot;font-size: 16px;&quot;&gt;=&amp;nbsp;&lt;/span&gt;π&lt;/font&gt;&lt;font style=&quot;font-size: 18px;&quot;&gt;&amp;nbsp;&lt;/font&gt;&lt;span style=&quot;color: rgb(51, 51, 51);&quot;&gt;DNI, nombre, apellido, dirección, email&lt;/span&gt;&amp;nbsp;&amp;nbsp;&lt;font style=&quot;font-size: 18px;&quot;&gt;(&lt;/font&gt;&lt;span style=&quot;font-size: 24px;&quot;&gt;σ&amp;nbsp;&lt;/span&gt;nombre_escenario = &quot;Carlos Gardel&quot;&amp;nbsp;&lt;font style=&quot;font-size: 18px;&quot;&gt;( Integrante |x|&amp;nbsp;&lt;/font&gt;&lt;font style=&quot;font-size: 18px;&quot;&gt;Banda&lt;font style=&quot;font-size: 12px;&quot;&gt;&lt;span style=&quot;font-size: 18px;&quot;&gt;&amp;nbsp;&lt;/span&gt;&lt;/font&gt;|x| Recital |x| Escenario&amp;nbsp;&lt;/font&gt;&lt;span style=&quot;font-size: 18px;&quot;&gt;))&lt;/span&gt;&lt;/div&gt;&lt;div&gt;&lt;font style=&quot;background-color: initial; font-size: 24px;&quot;&gt;π&lt;/font&gt;&lt;font style=&quot;background-color: initial; font-size: 18px;&quot;&gt;&amp;nbsp;&lt;/font&gt;&lt;span style=&quot;background-color: initial; color: rgb(51, 51, 51);&quot;&gt;&lt;font face=&quot;Comic Sans MS&quot;&gt;DNI, nombre, apellido, dirección, email&lt;/font&gt;&lt;/span&gt;&lt;span style=&quot;background-color: initial; color: rgb(51, 51, 51); font-weight: 700;&quot;&gt;&amp;nbsp;&lt;/span&gt;&lt;font style=&quot;background-color: initial; font-size: 18px;&quot;&gt;(&amp;nbsp;&lt;/font&gt;&lt;span style=&quot;font-size: 18px; background-color: initial;&quot;&gt;IntegranteCerati -&amp;nbsp;&lt;/span&gt;&lt;span style=&quot;background-color: initial; font-size: 18px;&quot;&gt;IntegranteGardel )&lt;/span&gt;&lt;/div&gt;&lt;div&gt;&lt;div&gt;&lt;div&gt;&lt;div&gt;&lt;br&gt;&lt;/div&gt;&lt;/div&gt;&lt;/div&gt;&lt;/div&gt;" style="text;whiteSpace=wrap;html=1;verticalAlign=middle;fontFamily=Comic Sans MS;" vertex="1" parent="1">
          <mxGeometry x="919" y="1240" width="1200" height="102.5" as="geometry" />
        </mxCell>
        <mxCell id="WcTLmxIVMHlKwNo3_fOQ-237" value="&lt;font style=&quot;font-size: 18px;&quot;&gt;&lt;span style=&quot;font-size: 24px;&quot;&gt;δ&amp;nbsp;&lt;/span&gt;año_creacion&amp;nbsp;&lt;font style=&quot;background-color: initial; font-size: 12px;&quot;&gt;&lt;font style=&quot;font-size: 20px;&quot;&gt;&amp;lt;&lt;/font&gt;&lt;font style=&quot;font-size: 16px;&quot;&gt;=&lt;/font&gt;&lt;/font&gt;&lt;span style=&quot;font-size: 16px;&quot;&gt;=&amp;nbsp;&lt;/span&gt;&lt;/font&gt;&lt;font style=&quot;font-size: 18px;&quot;&gt;1983&lt;span style=&quot;font-size: 12px;&quot;&gt;&amp;nbsp;&lt;/span&gt;&lt;/font&gt;&lt;font style=&quot;font-size: 18px;&quot;&gt;(&lt;/font&gt;&lt;font style=&quot;font-size: 24px;&quot;&gt;σ&amp;nbsp;&lt;/font&gt;&lt;font style=&quot;font-size: 18px;&quot;&gt;&lt;span style=&quot;font-size: 12px;&quot;&gt;nombreBanda = &quot;Ratones Paranoicos&quot;&amp;nbsp;&lt;/span&gt;&lt;/font&gt;&lt;font style=&quot;font-size: 18px;&quot;&gt;( Banda&lt;/font&gt;&lt;font style=&quot;font-size: 18px;&quot;&gt;&amp;nbsp;&lt;/font&gt;&lt;span style=&quot;font-size: 18px;&quot;&gt;)&lt;/span&gt;&lt;span style=&quot;font-size: 18px;&quot;&gt;)&lt;/span&gt;" style="text;whiteSpace=wrap;html=1;verticalAlign=middle;fontFamily=Comic Sans MS;" vertex="1" parent="1">
          <mxGeometry x="920" y="1420" width="1200" height="50" as="geometry" />
        </mxCell>
        <mxCell id="WcTLmxIVMHlKwNo3_fOQ-238" value="&lt;font style=&quot;background-color: initial;&quot;&gt;&lt;font style=&quot;font-size: 18px;&quot;&gt;banda_2019&amp;nbsp;&lt;/font&gt;&lt;font style=&quot;font-size: 20px;&quot;&gt;&amp;lt;&lt;/font&gt;&lt;font style=&quot;font-size: 16px;&quot;&gt;=&lt;/font&gt;&lt;/font&gt;&lt;span style=&quot;font-size: 16px;&quot;&gt;=&amp;nbsp;&lt;/span&gt;&lt;font style=&quot;font-size: 24px;&quot;&gt;σ&amp;nbsp;&lt;/font&gt;&lt;font style=&quot;font-size: 18px;&quot;&gt;&lt;span style=&quot;font-size: 12px;&quot;&gt;(fecha &amp;gt;= &quot;01/01/2019&quot; and&amp;nbsp;&lt;/span&gt;&lt;span style=&quot;font-size: 12px;&quot;&gt;fecha &amp;lt;= &quot;31/12/2019&quot;)&lt;/span&gt;&amp;nbsp;&lt;/font&gt;&lt;font style=&quot;font-size: 18px;&quot;&gt;(&lt;/font&gt;&amp;nbsp;&lt;span style=&quot;font-size: 18px;&quot;&gt;Recital&amp;nbsp;&lt;/span&gt;&lt;font style=&quot;font-size: 18px;&quot;&gt;|x| Banda&amp;nbsp;&lt;/font&gt;&lt;span style=&quot;font-size: 18px;&quot;&gt;)&lt;/span&gt;&lt;div&gt;&lt;font style=&quot;background-color: initial;&quot;&gt;&lt;font style=&quot;font-size: 18px;&quot;&gt;banda_2020&amp;nbsp;&lt;/font&gt;&lt;font style=&quot;font-size: 20px;&quot;&gt;&amp;lt;&lt;/font&gt;&lt;font style=&quot;font-size: 16px;&quot;&gt;=&lt;/font&gt;&lt;/font&gt;&lt;span style=&quot;font-size: 16px;&quot;&gt;=&amp;nbsp;&lt;/span&gt;&lt;font style=&quot;background-color: initial; font-size: 24px;&quot;&gt;σ&amp;nbsp;&lt;/font&gt;&lt;font style=&quot;background-color: initial; font-size: 18px;&quot;&gt;&lt;span style=&quot;font-size: 12px;&quot;&gt;(fecha &amp;gt;= &quot;01/01/2020&quot; and&amp;nbsp;&lt;/span&gt;&lt;span style=&quot;font-size: 12px;&quot;&gt;fecha &amp;lt;= &quot;31/12/2020&quot;)&lt;/span&gt;&amp;nbsp;&lt;/font&gt;&lt;font style=&quot;background-color: initial; font-size: 18px;&quot;&gt;(&lt;/font&gt;&lt;span style=&quot;background-color: initial;&quot;&gt;&amp;nbsp;&lt;/span&gt;&lt;span style=&quot;background-color: initial; font-size: 18px;&quot;&gt;Recital&amp;nbsp;&lt;/span&gt;&lt;font style=&quot;background-color: initial; font-size: 18px;&quot;&gt;|x| Banda&amp;nbsp;&lt;/font&gt;&lt;span style=&quot;background-color: initial; font-size: 18px;&quot;&gt;)&lt;/span&gt;&lt;/div&gt;&lt;div&gt;&lt;div&gt;&lt;div&gt;&lt;div&gt;&lt;div&gt;&lt;font style=&quot;font-size: 18px;&quot;&gt;&lt;span style=&quot;font-size: 24px;&quot;&gt;π&lt;/span&gt;&lt;span style=&quot;font-size: 16px;&quot;&gt;&lt;font style=&quot;font-size: 18px;&quot;&gt;&amp;nbsp;&lt;/font&gt;&lt;/span&gt;&lt;span style=&quot;font-size: 12px; color: rgb(51, 51, 51);&quot;&gt;nombreBanda, genero_musical, año_creacion&lt;/span&gt;&lt;span style=&quot;font-size: 12px;&quot;&gt;&amp;nbsp;&amp;nbsp;&lt;/span&gt;( &lt;/font&gt;&lt;span style=&quot;font-size: 18px;&quot;&gt;banda_2019&amp;nbsp;&lt;/span&gt;&lt;font style=&quot;font-size: 21px;&quot;&gt;&lt;b&gt;∩&amp;nbsp;&lt;/b&gt;&lt;/font&gt;&lt;span style=&quot;font-size: 18px;&quot;&gt;banda_2020&lt;/span&gt;&lt;span style=&quot;font-size: 18px;&quot;&gt;&amp;nbsp;)&lt;/span&gt;&lt;/div&gt;&lt;/div&gt;&lt;/div&gt;&lt;/div&gt;&lt;/div&gt;" style="text;whiteSpace=wrap;html=1;verticalAlign=middle;fontFamily=Comic Sans MS;" vertex="1" parent="1">
          <mxGeometry x="920" y="1547.5" width="1200" height="102.5" as="geometry" />
        </mxCell>
        <mxCell id="WcTLmxIVMHlKwNo3_fOQ-239" value="&lt;br&gt;&lt;font face=&quot;Comic Sans MS&quot;&gt;&lt;span style=&quot;forced-color-adjust: none; color: rgb(0, 0, 0); font-size: 12px; font-style: normal; font-variant-ligatures: normal; font-variant-caps: normal; font-weight: 400; letter-spacing: normal; orphans: 2; text-align: left; text-indent: 0px; text-transform: none; widows: 2; word-spacing: 0px; -webkit-text-stroke-width: 0px; white-space: normal; text-decoration-thickness: initial; text-decoration-style: initial; text-decoration-color: initial; background-color: rgb(251, 251, 251); float: none; display: inline !important;&quot;&gt;&lt;font style=&quot;forced-color-adjust: none; font-size: 24px;&quot;&gt;π&lt;/font&gt;&lt;font style=&quot;forced-color-adjust: none; font-size: 18px;&quot;&gt;&amp;nbsp;&lt;/font&gt;&lt;/span&gt;&lt;span style=&quot;forced-color-adjust: none; color: rgb(0, 0, 0); font-style: normal; font-variant-ligatures: normal; font-variant-caps: normal; letter-spacing: normal; orphans: 2; text-align: left; text-indent: 0px; text-transform: none; widows: 2; word-spacing: 0px; -webkit-text-stroke-width: 0px; white-space: normal; text-decoration-thickness: initial; text-decoration-style: initial; text-decoration-color: initial; background-color: rgb(251, 251, 251); float: none; display: inline !important;&quot;&gt;&lt;font style=&quot;font-size: 12px; forced-color-adjust: none;&quot;&gt;&lt;span style=&quot;color: rgb(51, 51, 51);&quot;&gt;nombreBanda, fecha, hora,&amp;nbsp;&lt;/span&gt;&lt;/font&gt;&lt;/span&gt;&lt;/font&gt;&lt;span style=&quot;color: rgb(51, 51, 51);&quot;&gt;nombre_escenario, ubicación&lt;/span&gt;&lt;font face=&quot;Comic Sans MS&quot;&gt;&lt;span style=&quot;forced-color-adjust: none; color: rgb(0, 0, 0); font-style: normal; font-variant-ligatures: normal; font-variant-caps: normal; letter-spacing: normal; orphans: 2; text-align: left; text-indent: 0px; text-transform: none; widows: 2; word-spacing: 0px; -webkit-text-stroke-width: 0px; white-space: normal; text-decoration-thickness: initial; text-decoration-style: initial; text-decoration-color: initial; background-color: rgb(251, 251, 251); float: none; display: inline !important;&quot;&gt;&lt;font style=&quot;font-size: 12px; forced-color-adjust: none;&quot;&gt;&amp;nbsp;&amp;nbsp;&lt;/font&gt;&lt;font style=&quot;font-weight: 400; font-size: 18px; forced-color-adjust: none;&quot;&gt;(&lt;/font&gt;&lt;font style=&quot;font-weight: 400; font-size: 24px; forced-color-adjust: none;&quot;&gt;&lt;span style=&quot;&quot;&gt;σ&amp;nbsp;&lt;/span&gt;&lt;/font&gt;&lt;font style=&quot;font-size: 18px; forced-color-adjust: none;&quot;&gt;&lt;span style=&quot;font-weight: 400; font-size: 12px;&quot;&gt;fecha = &quot;&lt;/span&gt;&lt;span style=&quot;color: rgb(51, 51, 51); font-size: 12px;&quot;&gt;04/12/2019&lt;/span&gt;&lt;span style=&quot;font-weight: 400; font-size: 12px;&quot;&gt;&quot;&lt;/span&gt;&amp;nbsp;&lt;/font&gt;&lt;font style=&quot;font-weight: 400; forced-color-adjust: none;&quot;&gt;&lt;font style=&quot;forced-color-adjust: none;&quot;&gt;&lt;font style=&quot;font-size: 18px; forced-color-adjust: none;&quot;&gt;(&amp;nbsp;&lt;/font&gt;&lt;font style=&quot;forced-color-adjust: none;&quot;&gt;&lt;span style=&quot;font-size: 18px;&quot;&gt;Recital |x| Escenario |x| Banda&amp;nbsp;&lt;/span&gt;&lt;/font&gt;&lt;font style=&quot;forced-color-adjust: none;&quot;&gt;&lt;span style=&quot;font-size: 18px;&quot;&gt;))&lt;/span&gt;&lt;/font&gt;&lt;/font&gt;&lt;/font&gt;&lt;/span&gt;&lt;/font&gt;&lt;div&gt;&lt;div&gt;&lt;div&gt;&lt;br&gt;&lt;/div&gt;&lt;/div&gt;&lt;/div&gt;" style="text;whiteSpace=wrap;html=1;verticalAlign=middle;fontFamily=Comic Sans MS;" vertex="1" parent="1">
          <mxGeometry x="920" y="1730" width="1200" height="40" as="geometry" />
        </mxCell>
        <mxCell id="WcTLmxIVMHlKwNo3_fOQ-240" value="" style="rounded=0;whiteSpace=wrap;html=1;fillColor=#FFCCE6;strokeColor=#000000;" vertex="1" parent="1">
          <mxGeometry x="880" y="40" width="40" height="2160" as="geometry" />
        </mxCell>
        <mxCell id="WcTLmxIVMHlKwNo3_fOQ-241" value="" style="rounded=0;whiteSpace=wrap;html=1;fillColor=#FFCCE6;strokeColor=#000000;" vertex="1" parent="1">
          <mxGeometry x="2120" y="40" width="40" height="2160" as="geometry" />
        </mxCell>
        <mxCell id="WcTLmxIVMHlKwNo3_fOQ-242" value="" style="shape=image;verticalLabelPosition=bottom;labelBackgroundColor=default;verticalAlign=top;aspect=fixed;imageAspect=0;image=data:image/png,iVBORw0KGgoAAAANSUhEUgAABCwAAAGdCAYAAADZvOLnAAAAAXNSR0IArs4c6QAAAARnQU1BAACxjwv8YQUAAAAJcEhZcwAADsMAAA7DAcdvqGQAAFyrSURBVHhe7d15n+PUmfbx5y2k7bLLtbtW1+6qcm290PtCNwQCCQwhQFhCCFkYwkAWMoQEAoEQSHqAMK9Wjy8x7qjdd9lHtpYj1++P72fItKU6lmVZ59I59/l/Z86cCQAAAAAAAHxCYAEAAAAAALxDYAEAAAAAALxDYAEAAAAAALxDYAEAAAAAALxDYAEAAAAAALxDYAEAAAAAALxDYAEAAAAAALxDYAEAAAAAALxDYAEAAAAAALxDYAEAAAAAALxDYAEAAAAAALxDYAEAAAAAALxDYAEAAAAAALxDYAEAAAAAALxDYAEAAAAAALxDYAEAAAAAALxDYAEAAAAAALxDYAEAAAAAALxDYFFA5dpYUJmuBJW58aC6MBGMr0wGtbWpYGJzJphstrXmclFdnjDbm4fqfC2Y3J0125mmqb25YHzJn+Ogc8NqZ9p0HKqLNbNNeagu1MI2WW1NU3gcfPpe1Mfb3wu7rWny7nxYnMjlfJBaY8psUx7yOg7h+dD+7bLalIe8vhf6jarMj5ttykNu34v2cdBvttWmPOiabbYzZb59L3Ru5nEfJT79blbq+dxPilfHIafzQd8L1/tq9Y8mt9v9oJ3ZoLY5HYyvTob3HrrGq99UHh8zt4P/CCw8UZ6qBLX16WD6eD6Yv9kIlr+/Hay+3Aq23jwX7PzxUnD4+c3g7P8+4r2jf9wK5i4vm+8xCxPNmWD/o2tm27J00P68Zi8smW3MQv16Izi8e8tsW5Z03uqcttqYBf24tj65brYtS/pezF7M73zQj/bu+5fNtmVp/7PrwdRRfueD/rbaYLUtS0dfPhzUb66abcyCL8dh/9P2+bBfN9uYhdr6VLD3wRWzbVlq/eVaeJNttTEL04eenA/t3279hlttzMLctZXg8J/5/26G34t2J81qYxZ0LuqctNqWpdzvJzc5DuLL+aD76pkLi2YbFVSs//TA3M5y/NXt4OCzm8Fu+/rffPdisPXrc8HG60dB48d7wcrTzWDhzlr4t3Q98ilUPs0ILHKk1Hb91YPwS2h9oYps9lL2nTM9ubTakqeZc/bFNU31Gw2zLXmaPsi+kzqxMW22JU+zD2X/vdB15siD8Coqj06qntRYbcnTwp11s61pUkfIakue8uikatTV0f88bLYnL3mMvvHxfFDAarU1TeoQWm3JUx4hlp7oqzNntScvedxP6on+0Zd3zPbkJZfjsDLp3fkwc37hgXY2f/eQ+dokqa+mBz+bvzoOFh/bCK+dpUrpgbYgHQQWOdEP0dFdv26WkqRE2HrfaWr+Jv0LVlwHf79htjUtSpn19NZqS572/3rNbG+adv77ktmWPOkHz2prmjZ/cWy2JU+tj6+abU2T/qbVljzpRrA8me0QVR9GoHXb+9Nls61p2vrPs2Zb8rT9zgWzrWna+8i/70Xzt9keB3U6fAt1RZ0jq71p2n77vNmWPOVxP7n99gWzLXnK5Ti0r0lWW/KkkbvRNmpklPW6rOj3a+2V/WD+9mr4gCjaNiSHwCInmuZhnfijZGJr2nzvabHa4INaI7unRT4+Re7Icm5uabxstsEHGvlhtTktusmx2pG3LOesa0in1QYfZDlFRvN4rTb4YGyqYrY5LT5MmbNYbU2L6mBZbfCB1d60aISP1QYflCeyDTStNvgg699N30YVdGR9HKw2+EBT6DttXP/pofmavGy8dhhO848eRwyPwCIHPt8kJGnm7IPDttKiYjpWG3ww1cpu+LumHFht8MHE9qzZ5jSoM2y1wQeaL261OS1WG3yg+cFWe9Pg4/Sgjvq1htnmNKhmg9UGH2josdXmtFht8IF+y6z2pkE3/VYbfFCZqZptToPuVaw2+CDLoosaoWm1wQdZ1sLy+ThkGXArLLPa4IPoNOPNN/0bLac6NFlew04DAosc+FhrIQ1ZD406/MLPWiBjGT4h0U2/1Ya8HX9zO/O5fr7NT+8Yy7BDInt/9nAqRNbnw1gp/JtWW/KmEMFscxo8PQ7HX98JzpSM9qbIhyJy3bqHOqfO0/NBhS/N9qZE9UysduRNNRSy/l4c/O2G2Za8aXSY1d60qMNptSNvlblsO8E+FOO1RO+rV364Y74mb0tPbN53LDEcAosc+JzeJmXzjbPme0+TLg5WW/K0/rNDs61p2vqvc2Zb8rT20r7Z1jQtP90025KnjZ8fmW1Nk1ajsNqSp9WX9sy2pmn1xZbZljxlPVdffDwOjWd3zLamSfONrbbkafF72d/grv54z2xLnhafzP44aEU2qy15UkfMamuaVEzQakue8rifXHzMv/vJjV9mf/+ga5LVljxtvH7/fbWWLfVxCk/znfP3tRPDIbDIiZbQsU7wUaAnunkNhdp8w58Cg6pTkvW8bNGTiNaH+S/V17Hzh4thTQmrrWnbfsufAmIqoJbH+SA+zfHUEmJ5nA9af33nXX8K86r4pZ7sWm1NU6lS9uo4qFiy1c4s6MbXalMe8uiUic6HLCrsu9LwbqudaavMjnuxxG1Hnp0drYJgtSkPup/MelRih08Fq3M9Du1rk9WmPJx0Xz13Nd/Cm5ZmDkWURxmBRU504fFxSOowtCrD0hNb5vvNkioG60JhtTELO+0OmZ5SWG3Lim5Cl36wHXaSrTZmQR3ThUezX7axm0YY5FnpWt+LPJ6cdpu9sBQGpXk9iVAn2YfzQW3Is8Ou7+TyU9uZT5HqFh6H318025gFdZLnH14z25YlLRWY56g0rcqg3yyrbVnSEru5ng/ta7QPx0GjO3bfy68oui/fC3UA81wpw5f7yfqV/I+DD/cP+m7muYJMeF/d5zhoSvT6Tw/C1disfWRt5dmm2U4MhsAiR5qDtfKjnaD18bfBhebca/lHdfT0lGH91YNg5Zlm2PnVxULF+iZ3Z8MlUVUsS7UwqosT4Zy2selqONXE+jsAAAAAcBqoj6XR3irCrjBD9aK0ItDUfj0sUK+HWUuPb4T9rNWXW+GIGgWnGml1dHf4GmiaqmK1C4MhsAAAAAAAoE2jIBV0TB/Uw4fGS09uhQ+S9VC5X5H/LFe1OS1OZWChJaxU5EvDozVkZ3wp2+XUAAAAAADFoxEckzuzQf16Ixwtr8K9mopdmc92RZvT4lQFFppGoQKAVhrmw1w5AAAAAADwrVMRWKi2Q8Nh6a6pVt3cHgAAAAAAZGvkA4u5yyvB/mfXzYCim5bEtPYBAAAAAACyNbKBhaqzxl3aUlVhrX0BAAAAAIBsjWRgoQIoViDRz8Hfbpj7AwAAAADAR6rVODZbNf+t6EYusFh7Zd8MI1xoDV5rnwAAAAAA+KI8PhY0XtgL9j+5ca8/q1Uwq4sT5uuLamQCi+rCRLD7/uX7Aoi4tN6utW8AAAAAAHygsOKk1S8P/3krmNqbM7cropEILKaP58MPxvrAXGjbyeasuW8AAAAAAHyx8nTT7Nd2HH9zJyyTYG1bNIUPLFZ+uGN+SK42fnkUVOvj5r4BAAAAAPDJ/t/+PQ2kl9Uf75nbF0lhA4tSuRRs/urY/GBc7P/1WjB9OG/uGwAAAAAAHx19ecfs41qav70QlGtj5n6KoJCBRWmsFGy+edb8QPo5+urhcAhNqVI29w0AAAAAgK/i1m7c++hqUF2omfvyXeECCwUN22+dMz+IfrbfPj9yVVMBAAAAAKfH0uMbZn+3l8PPbwbjS8VbZKJQgUWpUgqav3nI/AB6OfrX7WDh0XVznwAAAAAAFIbKI7wRf8bB/qfXg0q9WCMtChNYKKzYeTd+WHHw+c1gcpcVQAAAAAAAI6JcCotqWn3gXlofXwvGpiv2Pj1UjMCidGagaSC7710KKrOsAAIAAAAAGD1avlTLmFr94ZPs/flqUJ4oRiHOQgQWjWfjL1269sp+cGasZO4PAAAAAIBRMLU3FxzdfdjsF59k578vBeWq/6GF94HF7MUl8wD3svjohrkvAAAAAABGjQpq7v/1mtk/PsnWf5419+UTrwOLia3pcBlS6+CeZP72mrkvAAAAAABG1dh0NWh9dNXsJ59k6YlNc1++8DawUO0JFcy0DupJ6jca5r4AAAAAABh16kfHCS2Ov7kdTLbmzH35wMvAolQpB7vvXzYP6EnqV1bMfQEAAAAAcFqEocXH7qHF4Re3gspc1dxX3rwMLFaebpoH8iTUrAAAAAAA4FuVei3Y//S62X+2aIXNkoeLVngZWBx96V63YvXFlrkPAAAAAABOq+piLTj4zL3MwuoLe+Z+8uRdYFGZrpgHz7L163PBmZK9HwAAAAAATrPaeryFLKZadXM/efEusChPjJkHrtuOhqxU/BuyAgAAAACAL+rXG2af2qLaF9Y+8uLllJCddy+aB6+j9cn1cCSGtS0AAAAAAPi3tVf2zb61ZeWZprmPPHgZWEwdzZsHTrTU6fjKpLkdAAAAAAB4kAprWn1sS60xZe4ja14GFjJzfiEMJ6IHTUudVpcnzNcDAAAAAABbdb4WHP3j1n197JPs/P6iuY+seRtYiOpZzF1eCRburAXVhZr5GgAAAAAA0N/UQd0MKCyqfWHtI0teBxYAAAAAACA5qy+3zICi2+E/b+VeO5LAAgAAAACAU2Jsuhoc3XWbGtJ4dsfcR1YILAAAAAAAOEUWvrtuBhTd8l7mlMACAAAAAIBTpDRWCvY+umqGFFFH/7ptbp8VAgsAAAAAAE6Z6eN5M6SIan3ECAsAAAAAAJCx7bfOm0FFx8Ij6+Z2WSGwAAAAAADgFBqbrQaHX9gFODffPGtukyUCCwAAAAAATqlaYypcDaT1yfUwqDj+6naw8mzTfG3WCCwAAAAAAIB3CCwAAAAAAIB3CCwAAAAAAIB3CCwAAAAAAIB3CCwAAAAAAIB3CCwAAAAAAIB3CCwAAAAAAIB3CCwAAAAAAIB3CCwAAAAAAIB3CCwAAAAAAIB3CCwAAAAAAIB3CCwAAAAAAIB3CCwAAAAAAIB3CCwAAAAAAIB3CCwAAAAAAIB3Mgksqgu1oH5zNVh+ajuYPrdgvgYAAAAAAKAj9cBi7ZX94Oz/PnKfnT9eCsZmq+brAQAAAAAAUg0srLCiY+/Dq+Y2AAAAAAAAqQUW5alKcPzNbTOs6Ji9uGRuCwAAAAAATrfUAov5h9fMkCJq9eWWuS0AAAAAADjdUgss1l46eTpIB4EFAAAAAACwpBZYNN+9aIYUUStPN81tAQAAAADA6ZZaYHH05cNmSBFFDQsAAAAAAGBJJbCoLkyYAUW36vKEuT0AAAAAADjdUgksZs4vmAFF1PHXd8xtAQAAAAAAUgkslp7cMkOKqJ0/XDS3BQAAAAAA/prcnQtqjSnz35KUSmCx/rNDM6SIWntl39wWAAAAAAD4Z/WFveD4q9v3+vUHn90M6ldWzNcmIZXAovm7h+4LJywLj6yb2wIAAAAAAL+s//TA7NvL4qMb5jbDSiWw2P/0uvkmoqaO5s1tAQAAAACAPyaaM2a/PqoyXTG3HUYqgYXV+G5ZzHcBAAAAAADDaTy7Y/bro+rXGua2w0g8sKguui1pWqqUzO0BAAAAAIA/1n9y8nSQjuVnmua2w0g8sJjar5uNjzr6xy1zWwAAAAAA4JfVF1tm3z5q7dXkF9ZIPLCoX2+YjY/aff+yuS0AAAAAAPDL8lPbZt8+auvX58xth5F4YOH0Rv7zrLktAAAAAADwy/ztNbNvH7Xz3iVz22EkHlisvtx/qEjjx3vmtgAAAAAAwC8zFxbNvn2UVgu1th1G4oHF5i+OzcZHLX9/29wWAAAAAAD4ZXJ3zuzbRx1/fdvcdhiJBxbNd86bjY9auLNmbgsAAAAAAPwyvuS2GujYxJi5/aASDyx2/njJbHhU/cqKuS0AAAAAAPBLuTZm9u27Kdiwth9U4oFF65PrZsOjpo/nzW0BAAAAAIB/NOXD6t9HaeqIte2gEg8sju4+bDY8arI5a24LAAAAAAD8s//JDbN/HzVzdsHcdlCJBhbfOfMds9Hdxlcmze0BAAAAAIB/9v502ezfR2k1EWvbQSUaWIxNV81Gd6vMVM3tAQAAAACAf3be61+vcu7ysrntoBINLKoLNbPR3crjyVYOBQAAAAAA6dn5/UWzfx9Vv9Ewtx1UooGF61InpUrZ3B4AAAAAAPin+c55s38fNX97zdx2UIkGFrXGlNnobta2AAAAAADAT1u/Pmf276MWv7tubjuoZAOLNQILAAAAAABGzeavjs3+fdTSE1vmtoNKNLCY2Jg2Gx119OXD5rYAAAAAAMBPm687BBY/2Da3HVSigcXk9ozZ6KjDf94ytwUAAAAAAH5ae3Xf7ONHrTzTNLcdVLKBxe6s2eiowy8ILAAAAAAAKJLVl1tmHz9q5fldc9tBJRtYNPuPsNj/5Ia5LQAAAAAA8FPjhT2zjx+1+tKeue2gEg0sxqYqZqOjtt86b24LAAAAAAD8tPr8rtnHj1p7Zd/cdlCJBhbSfOeC2fCO+ZsNczsAAAAAAOAnl8BC00asbQeVeGBRqdeCo3/cMhuvdVutbQAAAAAAgL9GIrCQyux4sPHLo2D/0+vB8Ve3g90PriS+HisAAAAAAMjGyAQWAAAAAABgdIxEDQsAAAAAADBaCCwAAAAAAIB3CCwAAAAAAIB3CCwAAAAAAIB3CCwAAAAAAIB3CCwAAAAAAIB3CCwAAAAAAIB3CCwAAAAAAIB3CCwAAAAAAIB3CCwAAAAAAIB3CCwAAAAAAIB3CCwAAAAAAIB3CCwAAAAAAIB3CCwAAAAAAIB3CCwAAAAAAIB3RiawKFfHgo3XDoP9T68Hx1/dDnY/uBLM32yYrwUAAAAAAH5zCSxWX26Z2w4q8cCiVCkHu+9fNhu/9OSWuQ0AAAAAAPDXSIywWH2xZTa8Y3J3ztwOAAAAAAD4qfCBRWmsFBx/c9tseMfmL47NbQEAAAAAgJ8KH1hMbEybjY5qfXTV3BYAAAAAAPip8DUsplp1s9FRB5/fNLcFAAAAAAB+KvwICwILAAAAAABGD4EFAAAAAADwTuEDi8nWnNnoqEMCCwAAAAAACqXxnEMNi5f2zG0HxQgLAAAAAADQ08KdNbOPH7X42Ia57aAyH2FBYAEAAAAAQLHU1qbMPn6UVg61th0UIywAAAAAAEBfjRf2zH6+JD0dRAgsAAAAAABAX6VyKVj+/nZw/PWde338o3/dDpafbgalsZK5zTAougkAAAAAAJyVKqWgtj4dTgHRf1uvSQIjLAAAAAAAgHcILAAAAAAAgHcILAAAAAAAgHcILAAAAAAAgHcILAAAAAAAgHcILAAAAAAAgHcILAAAAE6DsVKw8N31YPP143sWv7cZzF1dCWqrU8HYxJi9HQAAOSGwAAAAGHVjpTCgsO7Noo6+vBPsvn85WHx0I6jMVe19AQCQEQILAACAETe5Oxcc3b1l3pud5Pib28HuB1eC9dcOwgBj+ng+qMyPB+UqIzEAANkgsAAAABhxgwQWvRx/fTvY/+x60Hz34v2BhkZljJXMNgAAEBeBBQAAwIhLOrDoR1NLWh9eCTZePwwW7qwF46uTBBkAgNgILAAA3pu9uBQc/vPbzpZ+R5ae2KTzg5ExNlsN1n96EBzdffje/dLRP24FK083g9J42dwmrqwDC4ummBx8djPYfOM4DDFqjangTJnvMQDgZAQWAACvzV1eDoefd/+ebL5xNijXRmQu/VgpHEo/tTcX1K83Qhpir6H2W78+F+x/ciMcft99HI6/uRO0/nItWH6mGQ7Hp7ZA8Uzt18N7o+jnGtX87YVgbKpibhuHD4GFpXMOr/54L6htThNEAgDuQ2ABAPBWZW487MxYvyd6Wrv8dDP4zpnvmNv6qjJTDUeMrL2yHw6Zjz5VH5aG4eupPJ2+YlBApZEU1mcZ1Xhhb+jzfKI5c2+Uks8Uyimkm72wxHkMACCwAAD4q36zEQYT1u+J6DclfCprbOsLjXqYfWgp2HzzbKLhRC9avpLOnt80OkgFK63Pr1vro6vhtBFrP64UeGgqlTVayVeHd2+FwZ5WJrHeEwBg9BFYAAC8VGp3uLffOmf+lkQ1nts1t89Vu+1TB/VwOL+GvFvtTlNRR5+cJtWFiXCaj/X5dTv4243EOu0zZxd6TkHxkb5D229fCGrrfoeTAIDkEVgAALzk2qHTU+rca1mUS2EBwcXHNoK9P13x4im26hWoboHZXuRu+nA+OP7K7TxJMrAIjZXC4GL1pb1g81fHQevja8F++29EaXqR1ZY8KbjY+OVRUF2csN8XAGDkEFgAALzk2qFLvDPnYGxiLKw/oEKBqrHh6zD75f/YNtuP/OmzsT4zy+57l4Jy+5yz9pMmTUPZ+YPbtJUsKUzRCKKkVlBJRbkUTB/U700FC0eJvHMhqC4TtgBAHAQWAIamzptWODgVc+bb73F8dTKo31wN1l89CHbfv3zviaSe/M2cW2SlhoTMXV4xf0e6pR5YtD9z1clY/N5m0Gx3OA6/KM5wej09N98TcuU63alDoYGus9a+0qTrulaosdqkc0tTjlREVt8/rVKj66JGbXRWtkl7lMbeny4HtbUps+25aX+2y09th/U3rDYr4FQxYXNbAMADCCwADCVa5V7fby3RZ72uqBQ+3Pck3aEegV6j12qpSZbpG9zSD9yeQO/++XJQmR5+2ccOdcAUlqhDdvDZzfbnWZwihd2yHGGhzqtWdlCIp9VP1HHtN3Rf2+iJ89zVlVBtdSrs/HaMavinkQsqpGl9ZhaFGwo5rH2lqbY+FRx+YXe8XUMUfYbjS99+xuHKOAmPSNLUJy197Eu9lpOWYe7QqDGNHrO2RZeylnv+9/UgvCYksMQvgGJJNLDQ/F3r4hylGxlrWwB+0A1oeHPZ7rDpiVn0RqH7ZmGs/d8771267zt+8Pcb7WvB5H379JVucLXUX/164z56kq4nhApgou9tULp5bf7uoaB+ZYXRFzG4DpnXyJZhOis6j/W5q1OY1SoeWclqhIWOv4bod4c7CjOXnth64Dum16r2SL8n8FqG06fOaFIUgp70BN6S10gZLb97UmA31Mol/1fzRSMRFDi6BMG9aHudU9qv+fcyomuJ7nOtNnaoLo/q81jbn2YPLPfc49qgc1K/zxrxpt9rfZ/yGIEEIBuJBhbS7wdYFyJrOwD5GZuuhDd7eppsfW+76XW6gd75vT23WVMlrL/jk0q9Fladz/rpucKLjdcOw/DHahf+bePnR+Yx7Db/8Jq5/UnU+dVTfY2AcT3ns6KOl0I/3bBv/uI4XJ5U383uDr+sPL8b/ruedFsdPp3bi49umMegm2741XHU1CaFawosnUcGtTuJK+1jmdZ3KeyMtju2oxRaqDir9V5Pktc1tVc7E52K1T7XNDpnmFV1dP6tvtzKdUSbli8+/rp3+/OqR+KbeyPZElzuufnO+fC33fp7AIor8cBi4c66eRGRo/95mHl7gEfKk2PhjXDSBQOHevKWAR+W9dPTo5Uf7YSfgdXG006d0803js1jF6Xh6hq2bu3DMrk7G857t/aVJX3nNDRe4ZXm/WsqxDBPCDUaSmFD9G9oBIOe+Fqv79Bx1hNK62lm65Pr7Q7rphmWdKy+2Mrku6TjNXdtxXwPRRO3foXkVTxVU+Gs9khaq9AoQG88uxtrBEqUgs48inHqc916s//nqvZZ24+8riKk1rFJgq6Dk81Zuw0ACinxwEL0pKX7AnLYvqGZPmDOHuADdZLVWU6rIJqeMKn4pPW3c9W+Yfp22Ho673sQGvK+8Oi639Xuc6DOu8vqBBoN4HTs2p0JdYLy+uzVqdeoJD1RVHCfxmgBfa8VIGiJSv3fvku96pg8p2OS7SijQe1/dG0khtKPr0yG90TWezxJXoGFzlmrPZL2srk6f3U/OcjvlEYeZT3SQqNNNOrEak+URq1Y248iXedUFHX9Jwf3al1lQX9Lo8asNgEonlQCC1EV/fmb384Fn7u4zFNEwAO6edB8cHWSrR/5JOnJnNWGvOjmV7UOfO2c7X5wJZjYmDbbfhq53vy7dOR03n8bVGX32euGWZ09DRH3cm51ytM40rL0xKb9fgpEU5is99ZLOEXH2FeaXELDLNqlwq1xp+/ptfrOpxEMnsRl5MxpKbhZXazlPuVOoWCc0XcA/JVaYAHAL2GH/bXDzDooeS3DZ9Gw+O23zpvt9ImGvS89uZV74bhQuw3zt1bDG051vlfaN/9ZjgJRMdR+wdrRlw87rUqj1+i11j6SopEbqgGhmhHV+VqmHaVBLD2+WbiwQjTNpe/IEY/pO6RRQdZ76+U0BxYySNiexzSifrVJRrXgpj6fsC5Q+3dCU8ms956HItTTAtAfgQVwCugGSZ0p6wc9La6dybQprFAnx2qjrzbfOJtrp+ykgEfnkG5KrW2S5rKKgtrjspypblqt7YelkGLn3YfCWg5F6kRXF2rB/qf+dCri2P/kRlCZ87c+Tj+DhGf6HuQxvN1llJOWHra2TYuuP3F+y7KeGqAAx2pHh/eBW7kUjkpQ8LD+2kEYwE5szoQFMsMQdkzLjFbDewoVSdXrtCpKWtNLh5XX6jrAaVGqlNvXjOlwhHCpkt7DNgILYMSp+FR3Mb6saGnQPCu2FzGs6NhRwcTp7DtmuinVfGOrTZLVMpP9bvzF5emZOgdJnwOavlPkJWrV2dCTXuu9+UwjQlSwsKjHPfxu/TR+eJZ2rYiTuAQWedTW0Hdaoa7VHotWs8pqtJ8CHKsNHb5NlezQMVXdm0ELnfqKwAJIT7jsdaRov+rX1a81zNcOi8ACGGFaESHP1TB08VItG6ttaYt7U+si+kTdKpxYnqqET6P0VEpzmYethJ5HaKH29yuOlkUHyiWwcBmOnlRgoRv5jdePwqcIaYc1adOolKxHXA1D17DVF/bCefHW+ykKl++WRSGhpkhZ+0yTS3HQvIqBamqN67LHCrrmb8db+nhQvdqkdijstbbLUzj154QlyouOwAJIh4IJ6zsncZead0FgAYyoJMIK3WBpHzLofHdtW9vMuJjkWCmsEm+1ZxAKKtZ/dhg+cTT/3gnUsZ3cnglvBgc9fups91uaMkn9nhB26Elxmh33foUJ4yxnqnns0acArvS5K/SaatVzHSmUhrSmySRB3xWtdKLh5poCUPSASFSQ0bWD3U2jHOJee5KgUFLhpNWmjjyX6Iwzgk7TFtK+jvYLAhX+KASyts2TrqO6nlptzpKmlWg0qD4r/X73o2mL/aaiEFgAyRubrfYcjaXvZdK/WQQWwAgaX5po3/BfNS8kvaiD1vztBXNlA630ozmtg3S8s5waos6NOjqDBgTdtJSiQgfrb7lSm2bOLgxcjEw3Z1kdP93gWW3o1vroavijZe0jCf06d7vvXQrKjsO8dfwbL+yZ+zmJOmpZTH3Ji0tnNCm6rujc33j9MAyiwjnx7ZsZ8aUwb9q0MsSghV99Dizy7hC6/tZlsdS2PmOtAmL9ffGpEHVUltcC0W+zaujoeqDRiuNLkwP/vvWraUJgASRP31vr+xalou3WtoMisABGzCBhhesIAnXeFh5Zj/20Wq+fOb9g7jNp+juDPE23hEUdZ5PrKGgYc7iUZNzj177BUwiTRefZdYRFmsPUXaYsxL0RjfM0Vjfvs5eWzP2MCp1LcYI9TW9S3Yu4565WxNC0HKsNp4W+99vvXDCPj4u0w8GTFCGwENdrftr1I7R/6+92+Fq/QkGOAh2rzUnRdWbvT5fDjk7SI10q9Vqw894l8+8SWADJazy7a37fojSN09p2UAQWwAiJ0ynr0JQNPf239mcJOzpPbYchh7W/k2y9eS4cFm3tMymDjiyxpBmyqGp93NEWak8WS/S51I7oSGOeorgMUV754Y65bS+TTbcaAqflJlffZRXNUr0VDcUWTcXQzYjOA32fVJelexst2+o65z3rVSR8pLm+w3QI83oy7xRYvHGcSZDai2tNFp3naf0GaeUMjcaz/q5kMcJjUHGu+XHp/mL5mWbq9WfC3/6/3H/89Zu59PiG+XoAg1t9vn9gsfbKvrntoAgsgBGhm8a4w971A19rxJ9TG4YWMaddqKOooeDW/hLRvhHV1BPrb8eVxYgGFdPc+q947c1iib44N69prXEfVp7uc24NGpYo6LD2F8VTuf5UbNE6dlE+d9KyMtbuTOvJsnV8XOUVWLhcC3yZ5uBSHyTNttZvNnpeszQFQssJW9vmLekRFgopwiK5Gdef0UgLjWLRFMrFxzYKX6QX8BWBBYCBxS0sqCdSWt7Q2peTcunb6Q0xQos0K8ovPb4Zqy29ZFUzQkPFdVGP026NINHTJGt/SXDpiHao3kkaS0z2G1o9TEfY5f0RWPTnchx9LTKYpW9How13XUpzZEAvRQosXKaypdVWXcc19cn6mx15fYYukqhh0al/NX1QD+8NrL8DYDQQWAAYiEZJHPy993r5UZrvqacR1r7iqMxUg70Prph/w5JWB1erkOipjvU3XahDoaHw6iiHK09kecPVvoltPLcbq1OTZhHTfmFBVBpz63V+6Dyx/l5HnBVCuhFYJMPlOIY1YKazW+HGN3GvyyfJ63wsUmDh0tY4hXrjUJHqfiMU9MTf2tYHw6wSotUA1l7aD0cSWfsGMHoILADEpqc2KphpXTAsST+hj9PBVdG+oUZ1WNrvf9CpIFqWSfP1Nf/Y3HdWYo5W0evSmrKizpH1Ny3DBAcnCeeCf9K7k6d/H/QzI7BIhtNx9KC+QW7a16WNXw62jGm3tKZe9TNqgUUaq63o91f1may/15HGdTJJCp0VPlttP4l+g7bfvhBUF9Mb7QfATwQWAGKLs1yeOnpJ3zjFmf+qJd/UXms/g9LSk3GmwkjnqZCWarX2mYv2ja+moljttegzT/pYuoxuiFLgk3RNDe2v1/reMszwagKLZLgcx0EKo46KQa5LJ9Gxtv5G2vIctRCXatpY7YtKY8SP6jL1K+Sr6SKaNmJt7wOFius/PTDbbtHv58Kd9dMbRgKnHIEFgFj0ZEtPuKyLRbe0CjZqjrrmqlt/05LkyhKDFLTb/eBKUFvz82lX3FVe9j68muhQXNdq+1Hq1Fj7GpRLx2OY4dUEFslwKV6q1TGsbUedRpH1WjGiQ/P+Xaay+RxYpDFqIS7XDreurUkvsbv0xKb5t6Ly+vzimNqvOz34CJd8vjDaSz4D6I3AAkAsrsvlhVMInkrnpkk3gHE62UnevM3fXnOeRiEaPZD0GvBJU2X1flMiOvTZa/60tZ9BDDKXOemb8X7V/nXDrCJx1rYuCCyS0W/qUBqjb4og7Dz/pH/nOVxysd3Z1VQw69+jCCx6c60VoumL1vaDcim2Oez1KjOOUyt9+LwB5IvAAoAzdbx333d7Gp72qhdx6lgkddNYmRt/YN31XhSq+B5WdMxriTzHaTaaP51U9XkFYNbf6CXJToCGlmuIufV3OoYd1k1gkYy+gcUpXSFk5vyC01QQ1R3S99blfCSwOJnrqDRdT5NeYtcl4PWlxocLl9VCivR+AKSDwAKAs37rvndk0VGPU8ciqc5gnNEVaU2HSYue3G2/41ZLQu9N86it/cSl4n7W3+glyc69Swdg2AKEBBbDcxlVdRpXCHENUfUavVbb+BxYuNSTyTOw0NQ+TfGz2tVN4X7Sv4NhnZI+v0F5fXaD0Oeoz9N6Hx0EFgAILAA4cR1dkdVw1OpCLdj/9LrZhm5JdAZd37/oaefctWTrLGQhTjFVDS239hFHnHooUeq4JjUvvF8HQP+m11jbuiKwGJ7LuZLWEsa+cp4K0j6HFbZ2tvM5sHB54p5XYDFzdsF5KWuF6WnUU+lXxyXJMDkLLoHFafteA3gQgQUAJy7rvotuoLOo5K2hzVq5wWpDtyRuvl3fvzRe2CtkNXOX+dEdSdxExi2e2pHkE7d+IzySmGZAYDE8l6Vn81qKMy+uAWP3k34Ci3h0XdQKTypYarXHotoMSU+JdPnN8311kG4ugQXXRgAEFgD60o1Sv3XfRUXIVIzM2kcaXFZ3kGFvvuNMlyhS3QqLa22QJAILl+HNlqQ6LFk9tSewGF64CsZnvUdULf2gOEPhh+W6WpH1pJ/AwlG5FNYHaX3iNpKvo/Xx1WB8acLe5xAUnPb9DiQw8i1LBBYAXBBYAOjLZd13yXpkgesT+mE7MnGWX5tsFXuVAi3fab23bkkUvoxTODUqqeKKLvUrkui4uXQQk5zmMopcOrJJL3frrbFSWNTYOgbdFLR2P3EvemARXmfbr7O2T4ICSoU8LsvEdkuzdlG/GlK6lumaZm3rKx8DCwXZ+gwXH90I1l87CJrt79B+u40nOfry25E3h1/cDP+3RjStvrQXzF5c4poOJITAAkBfLje4ecyddRn5oTnHtc1pc3sX4Txxh/X2Ra8r4lSQKJcq/XpqO2z1+7HZatD66Kq5/36S6rD0G6Fz/NXtcNi9tW0cLt+f3ArLtb9Dmm6h7279eiNYfroZdoY7Fr+3Gd685z2HXDf/vTpraXdifaHriz4jl5FJuiZPNh+8JhNY3E/HtDpfC+t8aEqFy4orFrVr9lJySz5HufzWFbHWgw+BRWWmGl77NN3m6K5bDSdXh/+8FY4kLPp9AZA3AgsAPbkMm5ckl7qMo7o8ET5FtOYX6/+3/P3hbrxdO9bqxKvOhbWPInEJLFTsVEVPre1dxakJ0i2JwET61a/Q567P39o2DpcOYlJ/y1QuBdXFifCmXO9ZTwA1fSvOnHy9dvXFVqpLFffSL1zSUHlNG7G2HSUq5uvSoe5V+NfnwGKiORN28qw2dXwbWMyG1/6FO2vhU/BoyLbSvrHVdUzTMqIdeP23OsgK4HQ+bbx2GLQ+vHLvCfkwFA4lvYRplMt0EL0na1uf5RJYtK9hU616sPH6kXMR1WGE9yFPbRNaAEMgsADQk8sTLx8667oZ1Q3j2qv7Qevja8Hue5eCqaP5oW8S9IRdT9qt9x2l4cN6Um3to0hcpoQMOxpAn4nrqJWTDFuBX8tfahlMa98deuKWRAjn0kFMdF5+u83q0GnKjZazjBNM9KKn+nq6n8eNd7/VEU7DkqaqD6SgyXr/3XpNz/M5sHDpwPpG1/60p2L0mw6iMCOJaXJZyyqwUF0pBbYKa5O6HsYRXjufyuc7BYwCAgsAPbl0YEe5s6D6F9Z77jYK00GkX8dQhh16HK74MMD88KhhO1QuQZzOfWvbuFw6iEMNcy+X2p3ZqfCGWN/FNG/IUx0J0oM6LVZ7Ooo4HD4OdbhU58R6791UjFNFOa39CIFFMtQJ1XlZnkz3vFNo2m91kLxGOA4rtcBC18T19jXxmWb4AMNlClXaihoqAT4gsABwInXAN9/oX9xtlJcT3Pj5kfmeo0ZlOojr561jYm3vapjpIB3DtqFfEHd4N7nieS4dRNn5/cXwu6Sh3XoaqL+vG/rK3Hh4Ax7ur90p0XQc1XTQj3M4gmLAOfeDSHQkiKPyxFg4YspqT8dIL2na/sw11cF6391UHLhf3RWX8zGpsC6uogQWmkqgFUSyCKn7Fb0u8u+PS+FsffdVZ2J8dTKYu7oS1tWJTgHqpmAviWk+aTg1hYGBhBFYADiRy7B5PblQUSlr+6JThW+Xp5qjMn/etV7HMJ0Z3eAPOx1Ehnmi7vLEMsmRBK6BRRGoKGH3qhNpc+nEjvKSpvOaDuAQ8IXDzh2m7Licj3l1rHwPLNQRXnmmmenqD/0+ryJPR+xXTHfUEFgAgxmZwEI3riqgpGJwmm+++8GV8Efeei0ANy7LPia1xKSPXJ7syqgsSelUr2TIlTOSmA4iw0xDcnmql1T9ChmVwCLNJRt7cTkvR7UjoOPd6+l6lK5Dmjpi7SeKwCI+jWJafbmV+vSPbvo8VXfBalNHkUcXjVKY249CxzQLswKjzCWw0DXa2nZQiQcWpUr5xAv60pNb5jYA+nMpODnK9Stcb55HZTi6y83jsCuEJDEdRIYJyvoVsJMkn9gX+aZcHbW9P10JFh/d6FkXIU2ndUlTHW/Vo7Dec7fWx1fDVTGs/XQjsIhPU6+0KonV5jT1u14mtfRyXvrVpsmb6gGp0G3znQvhajS6Dmq6XrfONBW97qTpKJryl8vS1cAIGIkRFlpqzWp4xyjeyABZ0E2r9Z2KGuVid643z+oAWNsXievytcOMPEhqOogM+rRKbVeBOmufHUk/CStCYBG9MdeykLMXlsLaGVnM0e+nX70RfUf1XbW2LawYdSt6LWFq8TmwcL0O5aX1yfVg4ZH1TEbUuVyr9LDOZVSNj1ynXGbp6O7D4W/c/O21cCnoe7WD4mhvM31QDzbfPBuGF6qHtPJ0M/OpdMAoKXxgoQt6vydlm79IeA1n4JTo11GQJJYc89VpCiym9uthwT7r/UUNU7/CtUaGKy3baf2dXlymgyQ9J9zHwEIdL1XQnz6eDwva+RBMnKTf8dO0LU3fsrYtqqTrVkQRWAxPHdG1l/ZTnSLiMiWzyL89LjWy0qawb+fdi+HIiVFYlhwYVYUPLCY2ps1GR+kG2doWQG8uN7YjHVio3sIn/QOLYVesyJvryIdhh95r1EK/TphCk8azu07z9tWxiTvEdumJTXNfURu/PEq0A+9DYKERFOocFPHGvN+wca1s43PgEtdks/eqEFEahaHRGNZ+TtLvfMxzmkFRAouOw3/eCuZvrQ72JL6PftcqnSNaQcTatgjymv6jEQ8brx8FU6167O8OgHwUvoaFLjhWo6O0/JS1LYDeTntg4XrzXPQnvP2WzesYdvixan1Y+40KK/BPuh33uDfsLp+nnlgnvepNXoGFfvt0Y66gqKjTttRuTTuz3l/Hyg93zG2LSN8v12HycepWRPU7H/OsCVK0wKJDtUZqa1PmexqES/2SPFbsSdJEcyYMfKz3lrROSDGxNZ1KuAQgXYUfYUFgAaSnfq1hfqeiRmWFDIvrHNsir5TiOrpCGs/tmvtw4TIdJDoVw7WTH2eKysz5hXAIsLWfjmGLilqyCiz0W6cAUcP5izqvvZtLB1bXKWvbogm/iz9x+y4qrBt0xRZNpbL22UFgMRgdt/rN1URG+7gUBh5mep4PdI7pmFnvLQm61ut6ONlqn8uEFEChEVgAOJFL0U1NmRjluZ/9hqNL0kUas6Sh3y61K/Qa1bmw9uHCZTqIOvad17vW1HAtAupSwE4U3iQ9vSCtwEIF4lTYTd9T1aGw/nbR9Rs2rieneSy1mgYVzuwXqEncIpvd+l3T8gwsxOWaG3Xw2c1g7dX98Bqj80WjTvSdUHiw+tJeOG1GtcxaH14J9tvn0uEXvWvYDEMhQzgseYipBho1odET1v47RmE58X6r/wwqy8KoALJR+MBCyanV6Chd2K1tAfTm8gSkyJ11F66dzSSXwcxKnOHn6uy7BAMWl1Ec+59dv+8G3LUgm+uNu+u5rGUEre2HkVRgca8OxWMb4RKLSQcrPqouTITnhnU8RP+m11jbFkmtMRmu0mK9x6hBimxGaTvV/LD23aEaFjNnF8zts+AaWGiZyWFGEmm6kc4drYijlXH03dJ3zPpbcW2/dX7gtrmEtcNcj33h8kDElT637bcvhHXtTsN1EThtNMLX+u5HKaC2th0UIyyAgnAtOpnGU2lfuN5UFa3wn9qqjo/LE65hn7iG59FH18x9d1iFLvsNXe+Yf3jtvu266cZehVGtbaPUYVFQYu1jGMMGFvoN02elee3W/kdZv6BJ0wc0jcDatijiBId63TCddNcpF1oFQzVn6tcbYZ2YLI+x6/dFr7O2H4ZCjPqVlbAukY6B9XddqfZK3M9K18B+4a6u2ZoyYm1fJEkEuZ3VWk7jtRE4TRburJnXgKikp8llPsKCwAIYjDp6GnJvfa+i9GRQTwitfRSda2GwohXedB1+Lus/OxzqaZ6KWPYKRvRvVqFLl2kkoo5Br6KSLrUrZJgaHb243pg3frwXLmWoH2YFYHt/vhoOaz/Nlez7nQPqVFvbFUXYQXWsWzFokc17yqVwGL7rCiTdNAVJwV91Md0RLa7fl7Q/e302GsmksFDTDKw29NN4Ye+BILYXl5E2adTZyYOK5VrvL0rnnDWFR0HFyo92Ul1WFoA/VNS4+zrQTSOsrG0HxQgLoED09Nr6XnUbZHm9InApFilaL1+dTWsfvtGcf9dOy7BhlIKOfrUjTprW4TIyQ3ode+cnyjFXHInDpQM26lOrBtVvhFMaT9mz5BochqOcVDzQ2EdP7e/f5O5sGIoMGlR0Gzo46cN5VNuvsluhSqGDboY17SDOtJG4o9Nchj2PyojGvrVUInWTFEjrd2vxe5tB49mdsFZJ9/4AjDYFwNa1QpKeDiIEFkCBqCPZaw55x7CF4HylG0NNV7Deczetm2/twyfqvOiaaLW/m0Y+LD0+3HtyOX9OGiGRxLFX+12mvaS5RKBLYDHstJtR1e/YqXNrbVcEcYJDFZXsXulA3w8VW1XnrVOLQVM4VI9h69fnwmKULuf+INI87q7FGF0L7iZNwcXuB1fMNln0WbiE+S4BbVp1drLmEiSnNUUPQDGV2r+By9/fvm/U5dG/vq3rlMZvAUU3gQLRTXG/ObUduvkelYr9UZoXZ73fbvt/vRZUF/0dqqsn+HGesm6/c2HoTryCBGvfUb2ekrss7ye7719+YL64Pgt9Jtbro7T/NOeEE1gMrlcdkyKPStGc+70/9S8q6yMNx58+njffVxL61S3pyLN+ia6LG68fOV2bNFJAqzFZ+4lyudaNwuog4lIfq2h1oQBko1QpBbX16TA81n9br0kCIyyAgqltTjs/lddw4VGrZ6GpAq4dfS+nxpRLwdKTW05DzzuSqEvisjyfViTodTOvm3PdpFvbRulGf/72v4tvhkGbY20APdXUDXT07yaJwGIw+gx7rWhR2GPWvj7oOmG9J98pZEl6nnA317pBmqqnKXvWPjLR/hy1hKlLaNFvVQ/9m1O9qL/dGInpEC7X9aLXpwFQbAQWQMGo49Br7li3UQstXJfYFN28DrPsYNLGpqvhkGSXm+qOpKb3uDwp7dfpcL2RF4VKnSfurk9pJe0bY5fAYlSW50xSv2HjRTxmui64rs7jE3WU6zcaD0xLSYM65Pp7VjuifOi8K5TVSDSrfVH9ahy5jDiQUQksNBLzsM/1udfIOwBIG4EFUEDqGLgUQOzQzVdRilC6UKfWep8WdfgXHlnPNbTQ3545uxDsO9z4RyUZuNSvNcy/EWUtZ9rNtfCr6Nhrn62P3c7VaGG3tLgEFqPSEUlSv45rEY9ZnNV5fKD7p3DZ4B6jA5LmGhD7MsLGdQReryX3XAPWUblOuBRWJbAAkCcCC6CgwuUpY9xs6wZM2+TZcU9Kv+UVu+k4qX5DHu9dS72t//QwiFPNviPJKS296g+IwhGX2hGu00IGkWaxzQ4Ci8H0mxpQtKWE4xTZ9EHj2d1MRlR0c13Zx5caJrrGu9R56lUk1HVllFG5TrhcE4tcUBdA8RFYAAWlG7O4w5nVaVbnuejrpaugowo7Wu/xJDpOqtifdof4nnbnYv7WqtP8b8vmG2eDci2Zz0mrfmj1D+vvdLjWjtBNfr+lUQfhGpgMy+XmvEjL4mal32oReRZdjEvLgGqqnPU+fJR3GNBvycsOXzq1WrmjX6Dda9UL11FkoxJYuIxYJLAAkCcCC6DI2p3HQQrGtT65HtSvtG9AcnhilxQVdYwT1nRkUqiuvf9hVh1IMqwQlznZjed2zW0t4eieAY59L/ufqgZC+qu6uAQWvgxv98nKD3fMY9VRlMCiUq8FO+9dMt9D2hQYq5OrAECdYnUUtcqH9doofdcUGFnvJwuuU/B8mTbgMgKvV9jgco2QUQksXAKptAKL8lQlPIbRpYBFD2N0b9OhBxSaUvmA9u+a6kLpNTpP9b3SfrS/ogSoAPojsAAKTqMNmu/2H7JrUadayxEXcZrIMEsRpjLSpKylnaaCjZ9reb340z9EHRNVuk96jnq/J479VgfpFgYgMWqouNAw7izOQwKL+FyKrRYhsAhHVvwl2fP2JIdf3AyvyxrVpQ5U2LE1AmLVtlHtFmsfUapB071tVlw78OowWttnbekH/dubSGDRvp8dXy12QWuX0XfSK7DQPnQsT6JldxVCLH5vM2i+cyEMGlyCuiRoOqiW0978xXHYhsxGWAJIFIEFMAK0+sTOgKGFhCMubq5mWswtCTPnF8IbEus9udB0DU3bGHikSXu7ia3pYOP1o6Hnw4d1Np7cSmXUS78npIMsSbj0+GYYsFj7iyuLYpsdLp2RvJ9o+0Z1S7QKiHWsOnY/uBJU5vo8bW5fXxR2KThQB6jTiek8Re08IVUHJ9xXgt8FhYkuKz/EpXBS18+N1w/D9zO+1O7AxriOuiw3LKpBY22fBX1WVpu6adnbvMNv1+OZRGAh+uwVOhUx9BfXGiUK4DqjGo7u9g/YfKWpQKwABRQPgQUwIjTSYvut8+b3zpU6zRoequ/yoOGFboBU0C7aERE9adQNvf6tMlNN5AZP+0hiWUKNFpi7uuL0nvU0SUOOFVL0WwrOla6Luum1/l4S+g351RM2vS9r25MMM8KlWxbFNjtcOyPhagzG9qeRVtmxjlE3dd4WH9sMv+fhkO5fHAetD6+E5/cg31E9hW3+5qGhR4FNNmfDjpb1N+JSQKFOj1aZqDWmEglVXM7JQb6jSdHoK43CstoV5cMoGwWfLiNWetWwiBNYiM5tXQtnLy2lEjhH6RyITp9YfHQjWH6mGVQXB5tO57qE6yjRKMiTCq4C8BOBBTBK2j/CqiY/6JSEKIUX6kiGQ0H/78e9M99US8fpZqkzDzsc5vnZ9VijHfRazT3VnPIH3kcc7bYpELH+Rlxq096frgSrL+2FI070HjudL71HPWWythvGzh8vBdXl9J74uDxBU6BhbdvPoHVEumkFF2v/aXDtjOT5RNsXqqOy8N11pyUe06RzTN/BQUILhYtxRj/pGtBof/ada5vmzouuCdpXGqGBS82FrGq8WDQ6RYVorXZF5V3TIbzW/d5tpGGvJZwVRlnbuNC5pjBbn2mc8Kbz21pbnQrD8875p2uzloXuF/rpN3/77QvtzypefSb9TX1u1j5H1ajUHgFOEwILYARpSLWedlrfQd9oxYlhn3aEdTwc5uH6RDeYay/tpz6yQFM9NOXDakPHoIGFSxjSj4IuTTmw9p8G18AizyfaedH71QgohTXqJCURRiVFT4FdVrGJ0hPvOGGLwor5m41ERn/FoXop/doZt85MklyfwmuKnZa/tfaROoX1zyms73/OKhxSXR9zP20uAZIrnVO6xnWmU0Qd/P1G+DtgbTco7S9OfaZ+yxWPIgILoHgILIARpY7wyo92Er8hSlpSNw9JTInJim5Ws5r3rE5OvyHSgwYWomKAw9zcK0Cw9psW18DiNNzU+hxQdItTCFXfK01jUWfR2pdF00/yKmzp2kFWMUlrexc6JrW1qXBqnkaL3VcQdKZ3EKSRNi6FnXX+5FH7RZ1zXcNcz9/t9vvvFRSnUVQ4awohtJpTv98Yl7Bs1GhEpsv0TwD+ILAARpw6JD6Ptki0Y6inbAlNiUmDbqh1Y53o6iQ9aOSKRrBYbYkaJrDQMdfUHmu//WjFhr6FGhN22gMLDe8PA4r2sfc9zIxyHWGhDpqmGBUlrBDXKQiDFrV0WWY5rBfy7sVg+altsx6C5v1b23XLMoBU6LDw6HqsEQIKb11Gqmi0hrV9kej3RlNfei2R7VpQdVTooYYebljHAoC/CCyAUyAcbfF0M7EikUlKYkpIlG7oNXrBt5Amj2ryqjXiMn9/qMCibbLp9nei1KHUE0Brf2lyDSwGmYLgO5176vRa79d3TsvelkvByjPxivDq6XJYLNHaXwb0ntSptNrWbZCilgqsY383v3mwHoJrqJJJYNH+vVCNIYWKVht6abyw53QNVmHLoo+y6FAQdVInXSNi4nxffKSwTaMWVWtGoyeiNajCIt/z/7fEasIrDwHIDoEFcIroyb5GIPgSXIQFJ1NaYkzvVXN5836KrL+fRa0KS1adDHUA4q7Wsv6zw1wqtauYndWebj6seJA0rYqg1RGs9+srdUb0dL9vcd72ubT6civWOaiOvKZjmPvLiEuNmY64IZrrCKuT6FiqE6hVWiZ3Z52mDqQVWKgopT6rYVZn6tVxt8xdW4k1UsdX+hzrN+0RRK4FVfOgdqvPoPNeo/jWXzsIV0XRqBAtjZzUamMA/EdgAZxCYfX/R9ZzG4WgTog6uFl04quLE+ETzKyDC93o6iZLw7GtdmXBdRi3gg1r+1janSOFEC4dxrgdhyS5ztnefivZkT8+8Llz0tGZmqBzMs6yoXE7lworpg/yKWIZFaeGgD47fYbWfiyuxTJdaNqFyzVUHcp7T7TvPdmuhtcHq40d3StQ6fdB10+tjpJEaND6+GrYybX+9knCIPap7cx/O9Jw0ii6vENMfbb7f70WLoGscyccEUEQAaALgQVwiummQIXY1n9yEHvYcFy6MdEyqboZzaOzOta+MVt9sZXq+7z3Hq+s5L7ChD5b1+H/4dK1xj5ic3jKrdU38pxDXJ4YC3bfu2S2LSrLufhZ8W34t74vqqWx9sp+2DYN2R6ko6KaC+r0WH/DouHjk81Zc19Zi1NDQIU544wIOY0rQFiG+bx1Pi7cWQ+DNGvfRaHw2np/kkW9jnC0xGc3wxBq8XubYTChkMpqDwB0I7AAENKNWXV5InyylVRBPn3fNYRX14Z+T9gyUy4FE1vTwdqr++ENlNVuVzpGOlYqYqgh0968xzbXwEJPd11XX3Chvzt1NB+GAtEno7rhX3k2m1E1vah9Cuiix6CbztvaZn4jY9LiWr8jaZ2h3ZpecG9ligHDCUuc96W6BHFGKaQtboikKU3WfiwEFt9Oo0ni81awr/PXp8DPldp80pQQ0bVO309r20FFfxvDa+mIjVYDkC0CCwC29g2GbjQ0TFMdX9349XrKpH9rfXglfFqqp4BFmf+vkRAahqyOwPqrB98OQ26/Vz2Vi9JSgCropadDSXe40qJhwNZnFbX/2fXU6ojo+Gh4r29DfDU0XEPEreOhm3uFdr5/toNwWeJ2GJ3pHDp+nXnmaT9F1WgddSSt9kTpc9V3e2zar0Kquo6oY2e12bLywx1zPxZNsRikMOWoaL5zvn/tkxh0TVBwoZF6w4bdWdIKMRphaL2nDhWe7Z6apPt1/d65TivyaYQhgNFCYAEgts58Y9f5yciHS9FNTdE4jTeXCmm6527r92nmfLYruWRJ70thQtJPiXc/uPLttKIcrgPjK5PBYZ+nw+qIzd9a9XaFAK2WEx2N1ItCVWsfFtfpT6MmHM3VPs/TPh8Vyk8fz/+73oZC/bvxA8HDL24+EIxrJJKmT95zczVc/UL/poBOr+31AKFD55XrakwKNcIHFO2/sfTk1r3ltxX66P11Rl3q+qHARg8yFu6sBeOrk9wDAEhVooGFist1Xyy7qRq2tS0AIFkuBf2Wntg0tz0NVHxWT0s1PUhLzp6Km+72e+xXZ6RTW2Lj9cOwA6MOk45TWAAxsp0PQUC/c1xP2VV419rWFyruqoK1Vvu7xS2Qq4DD2s8o0rmp5Vh9+LwVAt8L9bskOfpQIaRGsGk0k0JDfV+1moZG1+l+W9/dpAJYPZyorU4xegJA5hINLHQj1O/JjSoBm9sCABLVb7i85vOnNR0E/lIHRktVNn/z0LdPdd+9GD69nbu68m1nz9ORCJaTRlj4Pqqim76r+hy630eURgDFra3Sa/rTqNCTf40Uy3NFJgBAepINLNr0FMb6QemY3PGjMjcAnAZ66mYNHVbnJywUamwDFIWKuG7917n7zu2dP14KCwhbr/dZWrVVVHdBdQys/RaZrmGrL+yFq8RY7xsAMBoSDyxKlXKw8+5D5o/L0hNb5jYAgPToyaOGCO/9+WpYtV3zrhnWi5FRLoVTQ1QgcOkH27mvRDMMLb/Z+uT6ffdOGkGgh0FDTVlqHyMVVlRNC5faBz5SfQiNQtG0GAVSSU11AAD4LfHAokOFeDSPbvut8+EP7WRzxnwdAAAA/k+5FE7N0egohYtprLikfXbqHnRWSIoWdNTohX5TfNOgUKL18bUwYFUANbU3R2FnADjlUgssAAAAUGwKN1QsshNwdK9aEZe20/baTxhItPed9vK3AIDiIrAAAAAAAADOVAqitj4dTj0uVdIbCUdgAQAAAAAAnMxeXAqXQe9M6Tv++k5Qv9YwXzssAgsAAAAAANCXgolo/aEo1UWythkGgQUAAAAAAOhpbLYaHN69ZYYVopWoVJvI2nZQBBYAAAAAAKAnFUy2goqo+Vur5raDIrAAAAAAAAA9NZ7dNUOKqNUX9sxtB0VgAQAAAAAAelp9vn9gsfbKvrntoAgsAAAAAABATwQWAAAAAADAOwQWAAAAAADAOwQWAAAAAADAOwQWAAAAAADAOwQWAAAAAADAOwQWAAAAAADAOwQWAAAAAADAOwQWAAAAAADAOwQWAAAAAADAOwQWAAAAAADAOwQWAAAAAADAOwQWAAAAAADAOwQWAAAAAADAOwQWAAAAAADAOwQWAAAAAADAOwQWAAAAAADAOwQWAAAAAADAOwQWAAAAAADAOyMTWJSrY8HGa4fB/qfXg+Ovbge7H1wJ5m82zNcCAAAAAAC/uQQWqy+3zG0HlXhgUaqUg933L5uNX3pyy9wGAAAAAAD4ayRGWKy+2DIb3jG5O2duBwAAAAAA/FT4wKI0VgqOv7ltNrxj8xfH5rYAAAAAAMBPhQ8sJjamzUZHtT66am4LAAAAAAD8VPgaFlOtutnoqIPPb5rbAgAAAAAAPxV+hAWBBQAAAAAAo4fAAgAAAAAAeKfwgcVka85sdNQhgQUAAAAAAIXSeM6hhsVLe+a2g2KEBQAAAAAA6GnhzprZx49afGzD3HZQmY+wILAAAAAAAKBYamtTZh8/SiuHWtsOihEWAAAAAACgr8YLe2Y/X5KeDiIEFgAAAAAAoK9SuRQsf387OP76zr0+/tG/bgfLTzeD0ljJ3GYYFN0EAAAAAADOSpVSUFufDqeA6L+t1ySBERYAAAAAAMA7BBYAAAAAAMA7BBYAAAAAAMA7BBYAAAAAAMA7BBYAAAAAAMA7BBYAAAAAAMA7BBYAAAAAAMA7BBYAAAAAAMA7BBYAAAAAAMA7BBYAAAAAAMA7BBYAAAAAAMA7BBYAAAAAAMA7BBYAAAAAAMA7BBYAAAAAAMA7BBYAAAAAAMA7iQYWk605M6SIOiSwAAAAAACgkMrVsWDl6Waw+avjYPON42D5P7aD8viY+dphEVgAAAAAAIC+KjPVYPfPlx/o5+9+cCWo1sfNbYbBlBAAAAAAANBX8zcPmf18af7uoeA7Z75jbjcoRlgAAAAAAICepg/mzT5+1PTxvLntoDIPLA7+fsPcFgAAAAAA+Gnp8Q2zjx+19INtc9tBJRtY7M6ajY46/IIRFgAAAAAAFMnqC3tmHz9q9aU9c9tBJRpYTGxNm42OOrx7y9wWAAAAAAD4SWGE1cePWnl+19x2UIkGFrX1/oHF0b9um9sCAAAAAAA/rb26b/bxoxrP7pjbDirRwGJ8ZdJsdDdrWwAAAAAA4KeN1w7N/n3U8tNNc9tBJRpYVOdrZqO7lSplc3sAAAAAAOCfjZ8fmf37KK+LblZmx81GdytPjpnbAwAAAAAA/2y+cdbs30ctPbFpbjuoRAOLsamK2ehuY7NVc3sAAAAAAOCfrV+fM/v3UYuPeRxYlMbLZqO7aeqItT0AAAAAAPDP9tvnzf591MIj6+a2g0o2sCiXzEZ3qy5PmNsDAAAAAAD/7Lx70ezfR9WvN8xtB5VoYCFWo7vV1qbMbQEAAAAAgH9af7lm9u+jZs4vmNsOKvHA4ugft8yGR03uzpnbAgAAAAAA/xx+0b+vP7WXbF8/8cBi78OrZsOjZi8umdsCAAAAAAD/WH37brXVZGdTJB5YNH/3kNnwqIU7yRbiAAAAAAAA6ShPjpl9+26VuXFz+0ElHlhs/PLIbHjU8tNNc1sAAAAAAOCX6mLN7Nt3OzNWMrcfVOKBxeqLLbPhUWuv7JvbAgAAAAAAv0xuz5h9+6jjr26b2w4j8cBi+alts/FRW/951twWAAAAAAD4Zebcotm3j9r/2w1z22EkHljM314zGx+184eL5rYAAAAAAMAvC4+sm337qN33LpnbDiPxwGL2oSWz8VH7nySfvAAAAAAAgOQ1ntsz+/ZRm786NrcdRuKBxeTurNn4qKP/edjcFgAAAAAA+MVlcY3Gc7vmtsNIPLBwqR568NlNc1sAAAAAAOAXTfew+vZRmjZibTuMxAML2f/0uvkGOrb+65y5HQAAAAAA8Mvh5zfNvn3U9LkFc9thpBJYLP2g90oh04fz5nYAAAAAAMAf5eqY2a/vVlufMrcfRiqBhay+3DLfhMIM6/UAAAAAAMAvCiKsvn238sSYuf0wUgssZGq/Hqy9sh803zkfrL60F0wfMLICAAAAAICiqF9rmAFF1MHn6dSpTDWwAAAAAAAAxbXyox0zpIhqvnPB3HZYBBYAAAAAAMC0/fYFM6SIWnk++SVNhcACAAAAAACYDj7rv0JI/XrD3HZYBBYAAAAAAOABKqRpBRTdapvT5vbDIrAAAAAAAAAPmNydMwOKbqVK2dx+WAQWAAAAAADgAVMHdTOgiGp9eMXcNgkEFgAAAAAA4AG11SkzpIhae2Xf3DYJBBYAAAAAAMC088dLZlDRMdmcMbdLAoEFAAAAAAAw1damgsMv7JVClv9j29wmKQQWAAAAAADgRNXFWhhO7L53KTi8eytovnM+mH1oyXxtkggsAAAAAACAdwgsAAAAAACAdwgsAAAAAACAdwgsAAAAAACAdwgsAAAAAACAdwgsAAAAAACAdwgsAAAAAACAdwgsAAAAAACAdwgsAAAAAACAdwgsAAAAAACAdwgsAAAAAACAdwgsAAAAAACAdwgsAAAAAACAdwgsAAAAAACAdwgsAAAAAACAd7wJLCY2poOFR9aD+o1GUKnXzNcAAAAAAIDTIffAYmyqEuz84WJw9n8fuc/aK/vm6wEAAAAAwOjLPbDYfe/SA2FFx8Yvj8xtAAAAAADAaMs1sJi7vGwGFVFz11bMbQEAAAAAwOjKNbBo/HjPDCmiDj6/GZQnxsztAQAAAADAaMo1sNh47dAMKbqtvtwytwcAAAAAAKMp18Cifr1hBhSWic0Zcx8AAAAAAGD05BpYlGtjweHnN82Aotvu+5fNfQAAAAAAgNGTa2Ah9WvuoywWHlk39wEAAAAAAEZL7oGFNH97wQwouh19+XBQa0ya+wAAAAAAACerNaaClWeawe4HV8LZDhs/Pwqq8zXztT7wIrAYX5kMjr++Y4YU3fY+uhqUx1k1BAAAAAAAV9MH88HRlw/2uw/v3gpqm9PmNnnzIrAQpTzdB+4km786NvcBAAAAAADup0DCCis6Dj6/aW6XN28Ci1KlFOx/et08eJalxzfM/QAAAAAAgG+NzVaDg8/6L3YxfTxvbp8nbwILmTm3aB44y/E3t4PJ1py5HwAAAAAATjsNDNj70xWzT93Nx0UuvAosZP3VA/PgWY7+cSuorU2Z+wEAAAAA4DRTOQWrL22Zu7pi7iNP3gUWpUrZOQESzbUZX5ow9wUAAAAAwGkUp06k6luUJ/1b3MK7wEKqixPB0f88bB5Ii+bjVBcILQAAAAAAWPjuutl3PsnKD3fM/eTNy8BCps8tmAfyJCrYWZkdN/cFAAAAAMBpsPzUttlnPknztxeCM+WSua+8eRtYyMqz7kNYpPXR1WBsumruCwAAAACAUbby/K7ZVz6J+tDlmn9TQTq8DizOlM4EzXcvmgf2JPsfXQuq8zV7fwAAAAAAjKDVF1tmH/kkWsSiuuB339nvwKKtPFUJ9v581TzAJ1EhzonNGXN/AAAAAACMiu+c+U6w/hP31Tbl+Os7wWRz1tyfT7wPLGRsuhK0Pr5mHuiTHH91O5g+njf3BwAAAABA0Y1NjAVbvz5n9ol7mbu8bO7PN4UILKRSrwX7f7thHuyTHH9zO6jfaJj7AwAAAACgqCa3Z4L9T+L1kWXxsQ1zfz4qTGAh40sT4XQP66D3ovVnrf0BAAAAAFA0izGXLe1YuLNm7s9XhQospNaYDA6/iB9aLD65ae4PAAAAAIAi0Ioem786Nvu8/czfWjX36bPCBRYysTUdHN29ZX4IJzn68k5wZszPtWUBAAAAAOhl9uJSsP/pdbO/20/9WjFLJRQysJDa+lSw/1m8D2v6kCKcAAAAAIDiGF+ZDLbfuWD2cV3Ur6yY+y2CwgYWotVDdv77kvmhWAgsAAAAAABFoOkfjed2g6N/3Tb7t/1ou9kLS+a+i6LQgUXH+mtua85W5qrm9gAAAAAA+GLm7EJw8Pf4K4B0aNupvTlz30UyEoGFLD2xaX5QHavP75rbAQAAAADgi/r1htmnddX87YWgMjMaD+tHJrCQ6eP54PCfDxbj3Hj90Hw9AAAAAAC+qNbHH+jPxrHyTNPcb1GNVGAhlelKsPzUdrD55tlg+fvbYXFO63UAAAAAAPhk6QfbZhDRz9E/bgVTR6NXs3HkAgsAAAAAAIpo7dV9M5DoZecPF0e2XiOBBQAAAAAAHlj+D/cRFodf3AoWHlkPzpRL5r5GAYEFAAAAAAAeqK1Pm+FEt9UX9oLy5Ji5j1FCYAEAAAAAgCcaz+2ZIYWoVuP40oS53SgisEiRTqTJ1lxQa0ya/w4AAAAAQLelJzaDg89v3gsqdv77UjB9UDdfO8oILFJQv9YIWp9cvy8JO/7qdlgMZfXFVjD/8FowsT0blCplc3sAAAAAACZ3Z4PqQs38t9OAwCJhC3fW7wsq+jn4+41g971LweYbx2GYoSRNgcfUfj1ckrU6XwvKtdGfmwQAAAAAWRubrQa1talgqlUPZi8thUUstbTowqPrYX/M2gbZIbBIUHl8LDj68mEzmEiChgS1/nIt2Hn3oWD77fPB1pvngs1fHAcbrx0Ga6/sh4VXVp5tBsvf3w7mrq4E1fq42c6OsYmxYO7icrD0xFaw/NR25uZvr4YjTay2ZWlsqhJenBQWWe1M28J314Ppw/zXTFYwNntRxyGf80E/DkqQrbZlqdw+H+YuLweLT+ZzPmgEVm1z2mxblvTjXb+yEiw9mdf1YS2Y2Mr/OFRmquH5cNqPQ97fC1+uD2PTOh9W8rs++PK9mNb5kN9x0MOhieaM2bYsaaTszPmFYPF7+RyHxcc2guljD+4f2ve/un/I6zgs3FkLJj04H769PuT4e6ER3Jv5H4e87ydXnmkGKz/aCftFqy+3gvWfHgabrx8Hm79qe/Ns2Idq/u6hYO/Dq8HhF/+ebtHLxs+PgnKVB8h5IbBIkC5S1kmel8N/3jrxBq+6MBG0Prxibpe15aebZhuzUGtMPTB9Jy/rPzs025gFDTPb+8CP86HR/oGx2piF8dXJYP9TP84HBWhWG7OgDlF0zmSeFMBabcyCgiNvjkP7JsxqYxZ8+l7keX1Q1fb9z/w4Drl+L9amvDkfltsdE6uNWVCYufPeJbNdWdv69bncRuPq4djenzy5f3hu12xjFny6PihItNqYBZ/uJ5O2/dY58z0jfQQWCdKIAesEz9PRl3eC8aX7i37qicD+JzfM1+dl6fHsL676cfflx6VDI2WstqYpPB8+uma2Jy953ITqfPClc9qhpyVWW9NUmR0Pju6mN1JsEBqSabU1TXpSdvSPW2Z78rL46IbZ1jT5eJ3U0zOrrWnSsnG+XR/CdfeNtqbJx+OQS7hbOhNO57Xakxc9OTbbmqaxkjcPvzryCHd9/L3QaCyrrWny8X4yaT6MDD+NCCwSNH1uwTy586bkPdrO5f/YNl+XJxUlHZuu3NfOtK08v2u2JW+T29kO59McPasdect6uSbVkLHakaej/3k4nLpltTctGjZptSVPCl41JcFqb1rWXzsw25InHQcNxbfam5bVH5+8rFqeuoP4tClMttqRpzy+F2sv+XccpDLXewps0uLWK8vKzNkFs71p0ZB/qx15y7o44dqrHl4f2vcP5YzvHxQWWW0ZJZruY713pIvAImE+DoNSGBBto+ZtWa/L28y5xfvambbd9y+b7cjb0uPZPkVt/sbP82Hu2orZ3rTsejqEUQV4rfam5dCzp6cdWdd58WXIe7es56vv/tnP62T9RsNsb1r2PrpqtiNvWZ8Pvj1N75i5kO39g+qHWe3IW+PZHbO9adl+67zZjrypjpvV3rS0Pvbz+jCV8fKXvt5PJinre3R8i8AiYVrV4+Bvfk23EBVE6rRRRWas1+StfjPbG1AfPydRoSCrvWnZ+7Of50PWPwq+DXPuUG0cq71psdrgA62eZLU3LVYbfFC/nvF18jM/vxcq7me1Ny1Hd/0a7t2RdbB7+IWfxyHr4e/N314w25E3FWG32psW36bFdKiYudXetKRZcH8YKpxttTctvt5PJmlqb85870gXgUUKNOd3sX2x3PmjHxdyJb/R9vn6ZCDreWG+PhnIumPm4xQAyfrJ4fY7ft6A1hrZDn33deTRxEa2KyP4UkyvW9bHYfttP78XWV8ffB2ZmPX54OsT1MmdbO8ffJ0qtfhYtkHe+qv+TZ2T6YOMrw/vXjTbkTcVTLbamxZf7yeTkkudGIQILNJWLoUrUWjZTNWO2PrPs8H+X7MtSNNdqE0/7Nbr8rTz35eC75z5zn3tTJtueK225Gn/bzeC0njZbG9afDwfND1Dxbys9qbFx/Oh+c55s61p0hN8qy152vn9xcyvDxpSbLUlT3kcB82Jt9qSpzyuD1q60mpLnnI5Hzw8DgpZVQTTam9adF93/PVtsz15UbHkrGuBqebW8Td3zPbkRdeHUvve22pvWnxbJVB0fbDamqbJ3TmzLaNAD7Wyvj/HvxFY5KRUKYVLg+nHX0PXGj/eC5/4t/6SbJih0RTW3/epUJLmimddYLHDpwJBvZahTZvOQatNeVANBS0PZrUzbVp9wGpTHlRpuzKfbSG5Dq1bbrUpD1p2WMswW+1Mm3fHYTGf4+DT9yLP60PjOX+equf5vVj54Y7ZpjyE9w8r2T5F7pi/6U+4qykJWRfc7NBqNVab8qAVjWqrU2Y707b6gj/XB90/aIq61c60LT62YbapCPTQUEv06mHRxs+PwmLsWiJ2opltMXw8iMDCU1oZQBeb2vpUOF9q9sJS+ORTHUut6rDybDNcj1431Os/PQi/WJtvHIdrBG+/fT5Y/8lBOKrD2neHnqzry6htNB8zawpTtJZ8tL5GHiZbc2Hl863/yuk4tD83LeM5Nls125cVXZDzPB82fnkUBkhaNs9qX1Y0lFTfKw2Ft9qZNn2XVb9Dy4NZ7cuKbn61MoKuJ1Y70xYehye2wnDXal9WNPKG43AmLP6q62Ru34vO9SHjqvfdVPw19+uDD+fDQT3X43Dv/qGW7/mg8Gz1+d3wgZPVzrRpiLrqXmW9Kka3ia3pew/erHamTeeD7o2zXlWr29SRB78XHtw/TDbz7V/o7+qc0JQlBUnLTzfb183NYOHOWlj3Z/ahpfBeT+etgt+8ryPoj8ACAAAAAAB4h8ACAAAAAAB4h8ACAAAAAAB4h8ACAAAAAAB4h8ACAAAAAAB4h8ACAAAAAAB4h8ACAAAAAAB4h8ACAAAAAAB4h8ACAAAAAAB4h8ACAAAAAAB4h8ACAAAAAAB45kzw/wFH2shIZAJ/ZQAAAABJRU5ErkJggg==;" vertex="1" parent="1">
          <mxGeometry x="1900" y="51.61000000000013" width="210" height="81.21" as="geometry" />
        </mxCell>
      </root>
    </mxGraphModel>
  </diagram>
</mxfile>
